<svg xmlns="http://www.w3.org/2000/svg">
<defs>
<font id="Y2KNeophyte-Italic" horiz-adv-x="737" >
  <font-face 
    font-family="Y2K Neophyte"
    font-weight="400"
    font-style="italic"
    font-stretch="normal"
    units-per-em="1000"
    panose-1="2 11 6 3 5 8 0 2 2 3"
    ascent="800"
    descent="-200"
    x-height="626"
    cap-height="840"
    bbox="-184.999 -227.001 1180 1100"
    underline-thickness="0"
    underline-position="0"
    slope="-12"
    unicode-range="U+0020-U+E003"
  />
<missing-glyph horiz-adv-x="841" 
d="M186 840l-157 -1044h626l157 1044h-626zM411 713l-37 -24l-2 -12l39 26l29 -27l1 12zM377 714h68l2 10h-68zM395 661c3.33301 0 7.66895 -1.66699 13.002 -5c4 -5.33301 4.16699 -11.5 0.5 -18.5s-9.83398 -10.5 -18.501 -10.5c-5.33301 0 -9.33301 1.66699 -12 5
s-3.66699 7.33301 -3 12c0.666992 4 3 8 7 12c5.33301 3.33301 9.66602 5 12.999 5zM397.003 670c-2.66699 0 -6.16406 -0.666016 -10.4971 -1.99902s-7.5 -3 -9.5 -5c-5.33301 -4 -8.33301 -7 -9 -9c-0.666992 -3.33301 -1.33398 -5.83301 -2.00098 -7.5l-1 -2.5
c-0.666992 -1.33301 -0.333984 -5 0.999023 -11c1.33301 -4 3 -6.66699 5 -8c2 -2.66699 4.66699 -4.66699 8 -6l6 -1.5c1.33301 -0.333008 2.66602 -0.5 3.99902 -0.5c3.33301 0 7 1 11 3c6.66699 0.666992 12 5.33398 16 14.001c2.66699 5.33301 4 9 4 11v10
c-0.666992 1.33301 -1.66699 2.66602 -3 3.99902s-2.33301 2.66602 -3 3.99902c-2 3.33301 -4.33301 5.33301 -7 6c-0.666992 0.666992 -4 1 -10 1zM386.006 563.001l4.99902 32c3.33301 -1.33301 6 -3.33301 8 -6c2.66699 -3.33301 3.33398 -6.66602 2.00098 -9.99902
c-1.33301 -4.66699 -3.33301 -8.33398 -6 -11.001c-0.666992 -2 -3.66699 -3.66699 -9 -5zM382.005 596.001l-6.99805 -44h2c6 0 9.33301 0.333008 10 1c4.66699 2 7.33398 3.33301 8.00098 4c1.33301 0.666992 4.66602 3.66699 9.99902 9
c2.66699 4 4.33398 8.33301 5.00098 13c0.666992 2.66699 0.666992 6 0 10s-2.33398 7 -5.00098 9c-2.66699 2.66699 -5.33398 4.66699 -8.00098 6c-0.666992 0.666992 -4 1 -10 1s-9.33301 -0.333008 -10 -1c-4.66699 -2 -8 -4 -10 -6c-4 -4 -6.33301 -7 -7 -9

<glyph glyph-name=".notdef" horiz-adv-x="841" 
d="M186 840l-157 -1044h626l157 1044h-626zM411 713l-37 -24l-2 -12l39 26l29 -27l1 12zM377 714h68l2 10h-68zM395 661c3.33301 0 7.66895 -1.66699 13.002 -5c4 -5.33301 4.16699 -11.5 0.5 -18.5s-9.83398 -10.5 -18.501 -10.5c-5.33301 0 -9.33301 1.66699 -12 5
s-3.66699 7.33301 -3 12c0.666992 4 3 8 7 12c5.33301 3.33301 9.66602 5 12.999 5zM397.003 670c-2.66699 0 -6.16406 -0.666016 -10.4971 -1.99902s-7.5 -3 -9.5 -5c-5.33301 -4 -8.33301 -7 -9 -9c-0.666992 -3.33301 -1.33398 -5.83301 -2.00098 -7.5l-1 -2.5
c-0.666992 -1.33301 -0.333984 -5 0.999023 -11c1.33301 -4 3 -6.66699 5 -8c2 -2.66699 4.66699 -4.66699 8 -6l6 -1.5c1.33301 -0.333008 2.66602 -0.5 3.99902 -0.5c3.33301 0 7 1 11 3c6.66699 0.666992 12 5.33398 16 14.001c2.66699 5.33301 4 9 4 11v10
c-0.666992 1.33301 -1.66699 2.66602 -3 3.99902s-2.33301 2.66602 -3 3.99902c-2 3.33301 -4.33301 5.33301 -7 6c-0.666992 0.666992 -4 1 -10 1zM386.006 563.001l4.99902 32c3.33301 -1.33301 6 -3.33301 8 -6c2.66699 -3.33301 3.33398 -6.66602 2.00098 -9.99902
c-1.33301 -4.66699 -3.33301 -8.33398 -6 -11.001c-0.666992 -2 -3.66699 -3.66699 -9 -5zM382.005 596.001l-6.99805 -44h2c6 0 9.33301 0.333008 10 1c4.66699 2 7.33398 3.33301 8.00098 4c1.33301 0.666992 4.66602 3.66699 9.99902 9
c2.66699 4 4.33398 8.33301 5.00098 13c0.666992 2.66699 0.666992 6 0 10s-2.33398 7 -5.00098 9c-2.66699 2.66699 -5.33398 4.66699 -8.00098 6c-0.666992 0.666992 -4 1 -10 1s-9.33301 -0.333008 -10 -1c-4.66699 -2 -8 -4 -10 -6c-4 -4 -6.33301 -7 -7 -9
c-2.66699 -4 -4.33398 -7.33301 -5.00098 -10c-1.33301 -5.33301 -0.333008 -10.333 3 -15c2 -4.66699 6 -8 12 -10l2 10c-4 0.666992 -6 2.66699 -6 6s-0.166992 5.83301 -0.5 7.5s-0.5 2.16699 -0.5 1.5c1.33301 8 7 13.667 17 17zM349.007 528.001h23.001
c7.33301 0 12.666 -1 15.999 -3c2.66699 -2 3.66699 -5.33301 3 -10c-1.33301 -4.66699 -3 -8 -5 -10c-3.33301 -2 -7.66602 -3 -12.999 -3h-27l-2 -9h29c6.66699 0 12.667 2 18 6c4.66699 2.66699 7.66699 7.66699 9 15v8c-0.666992 0.666992 -1.33398 1.5 -2.00098 2.5
s-1.66699 2.16699 -3 3.5h6l2 9h-52zM337.008 444.001h30l-4 -27h-30l-2 -10h68l2 10h-28l4 27h28l2 11h-68zM353.008 381.001c5.33301 0 9.49902 -1.66699 12.499 -5s4.16699 -7.33301 3.5 -12c-0.666992 -4 -3 -8 -7 -12c-5.33301 -4 -10 -6 -14 -6
c-5.33301 0 -9.33301 2 -12 6c-3.33301 2.66699 -4.33301 6.66699 -3 12c0.666992 4.66699 2.83398 8.66699 6.50098 12s8.16699 5 13.5 5zM322.007 347.001l-1.00098 -10.002h52l1 10h-7c3.33301 2 6 4.66699 8 8c0.666992 3.33301 1.33398 5.83301 2.00098 7.5l1 2.5v10
l-2 4c-0.666992 1.33301 -1.66699 3 -3 5c-0.666992 0.666992 -1.66699 1.33398 -3 2.00098s-2.66602 1.66699 -3.99902 3l-7.5 1.5c-1.66699 0.333008 -2.83398 0.5 -3.50098 0.5c-7.33301 0 -14 -2.66699 -20 -8s-9.66699 -11.666 -11 -18.999v-2
c0 -2.66699 0.333008 -5 1 -7c0.666992 -4 1.66699 -6.66699 3 -8h-6zM329.006 270.999l0.998047 10.001c-2.66699 0.666992 -5 2.66699 -7 6v9c0.666992 4.66699 2.83398 8.66699 6.50098 12s8.16699 5 13.5 5s9.5 -1.66699 12.5 -5s4.16699 -7.33301 3.5 -12
c-0.666992 -3.33301 -2.33398 -6.33301 -5.00098 -9c-1.33301 -3.33301 -3.66602 -5.33301 -6.99902 -6l-1 -10c5.33301 0.666992 10 3.66699 14 9s6.66699 10.666 8 15.999l-0.5 2.5c-0.333008 1.66699 -0.5 4.16699 -0.5 7.5c-1.33301 4 -3 7 -5 9
c-0.666992 2 -3.33398 4 -8.00098 6c-2 0.666992 -3.66699 1.16699 -5 1.5s-2.66602 0.5 -3.99902 0.5l-2.5 -0.5c-1.66699 -0.333008 -4.5 -0.833008 -8.5 -1.5c-4 -2 -7 -4 -9 -6c-4 -3.33301 -6.66699 -6 -8 -8c-2.66699 -2.66699 -4 -6.33398 -4 -11.001
c-1.33301 -7.33301 -0.666016 -12.666 2.00098 -15.999c3.33301 -5.33301 8 -8.33301 14 -9zM307.004 246h22.9971c2 0 3.83301 -0.166992 5.5 -0.5s2.83398 -0.5 3.50098 -0.5c2.66699 0 4.33398 -0.333008 5.00098 -1l4 -5c0.666992 -0.666992 0.666992 -3 0 -7
c-0.666992 -4.66699 -2 -7.33398 -4 -8.00098c-4 -2 -8.66699 -3 -14 -3h-27l-1 -10h30c6 0 11.667 2 17 6c4.66699 2.66699 7.66699 7.33398 9 14.001v1c0 3.33301 -0.333008 6 -1 8c-0.666992 0.666992 -1.16699 1.5 -1.5 2.5s-1.16602 2.16699 -2.49902 3.5h22l2 9h-68z
M321.001 162l-26.002 0.00195312l-2 -9h27c5.33301 0 9.66602 -1 12.999 -3c2 -2 3 -4.66699 3 -8c-1.33301 -4 -3.33301 -7 -6 -9l-7.5 -1.5l-2.5 -0.5h-30l-1 -9h32c7.33301 0 12.333 1.33301 15 4c4.66699 3.33301 7.33398 8.33301 8.00098 15
c0.666992 1.33301 0.333984 4.33301 -0.999023 9c-2.66699 4 -4.66699 6.33301 -6 7c4 0.666992 6.66699 2.66699 8 6l2 4c0.666992 1.33301 1.33398 3 2.00098 5c0 -1.33301 -0.166992 -1.33301 -0.5 0s-0.5 3.66602 -0.5 6.99902
c-0.666992 0.666992 -1.16699 1.5 -1.5 2.5s-1.16602 2.16699 -2.49902 3.5h6l1 8h-52l-1 -8h26c6 0 10.667 -1 14 -3c2 -1.33301 2.66699 -4.33301 2 -9s-2.33398 -7.33398 -5.00098 -8.00098c-3.33301 -2 -8 -3 -14 -3zM310.999 97.002
c4.66699 0 8.66602 -1.99902 11.999 -5.99902c2.66699 -3.33301 3.66699 -7.33301 3 -12s-3 -9 -7 -13c-2.66699 -2.66699 -7 -4 -13 -4s-10.333 1.33301 -13 4c-3.33301 5.33301 -4.33301 9.66602 -3 12.999c0.666992 4 3 8 7 12c4.66699 4 9.33398 6 14.001 6z
M279.998 62.0029l-1.99805 -9.99902h52l2 10h-7c2 2 3.5 3.66699 4.5 5s1.83301 2.33301 2.5 3c1.33301 3.33301 2.16602 5.83301 2.49902 7.5l0.5 2.5c0.666992 1.33301 0.833984 2.66602 0.500977 3.99902s-0.5 3.33301 -0.5 6l-5 9c-2 2 -4.33301 3.66699 -7 5l-7.5 1.5
c-1.66699 0.333008 -2.83398 0.5 -3.50098 0.5c-8.66699 0 -15.334 -2.33301 -20.001 -7c-6 -5.33301 -9.66699 -12 -11 -20c0 -2 0.333008 -5 1 -9s2 -6.66699 4 -8h-6zM274 25.0039h23c7.33301 0 12.666 -1 15.999 -3c2 -2 2.66699 -5.33301 2 -10
c-0.666992 -4 -2 -7 -4 -9c-4 -2 -8.66699 -3 -14 -3h-27h29h17c4.66699 0 7.66699 3.66699 9 11v1c0 3.33301 -0.333008 6 -1 8c-0.666992 0.666992 -1.16699 1.5 -1.5 2.5s-1.16602 2.16699 -2.49902 3.5h6l2 9h-52zM263 -17.9961
c-6 -2.66699 -10.3359 -6.00098 -13.0029 -10.001c-3.33301 -3.33301 -5.33301 -8.33301 -6 -15c-1.33301 -8 0.333984 -14.333 5.00098 -19c4 -4.66699 10.667 -7 20 -7h43l1 10h-7c4 4 6.33301 6.66699 7 8c1.33301 3.33301 2.33301 5.66602 3 6.99902l1 2v4
c0 2.66699 -0.333008 5 -1 7s-1.33398 3.66699 -2.00098 5l-2 4c-2 1.33301 -3.66699 2.33301 -5 3s-2.33301 1.33398 -3 2.00098l-10 2c-7.33301 0 -14.166 -2.66699 -20.499 -8s-9.83301 -11.666 -10.5 -18.999v-10c0.666992 -1.33301 1.33398 -2.5 2.00098 -3.5
s1.33398 -2.16699 2.00098 -3.5c-4.66699 0 -8.66699 1.66699 -12 5c-2.66699 2.66699 -3.33398 6.66699 -2.00098 12c0.666992 -0.666992 1 1 1 5c0.666992 2.66699 3.33398 5.66699 8.00098 9zM291.997 -24.9971c5.33301 0 9.5 -1.66602 12.5 -4.99902
s4.16699 -7.33301 3.5 -12c-2 -12 -9 -18 -21 -18c-5.33301 0 -9.33301 2 -12 6c-3.33301 3.33301 -4.33301 7 -3 11c0.666992 5.33301 2.66699 9.66602 6 12.999c8 3.33301 12.667 5 14 5zM257.997 294.004l-0.000976562 -4c2 0 4 1 6 3
c1.33301 2.66699 2.16602 4.66699 2.49902 6l0.5 2c0.666992 8 -3.33301 12 -12 12c-10 0 -15.333 -4 -16 -12c0 -1.33301 0.666992 -4 2 -8c0.666992 -2 3 -3 7 -3v4c-1.33301 0 -2.66602 0.666992 -3.99902 2c-0.666992 0.666992 -1 2.33398 -1 5.00098
c0.666992 1.33301 1.33398 2.33301 2.00098 3l2 2c1.33301 1.33301 3.66602 2 6.99902 2l2 -0.5l6 -1.5c2.66699 -0.666992 3.33398 -2.33398 2.00098 -5.00098c0 -3.33301 -0.666992 -5 -2 -5l-1 -0.5zM249.996 281.004c-4 0 -6.00293 0.335938 -6.00293 1.00293
c-3.33301 1.33301 -5.66602 3 -6.99902 5l-3 6c0 2.66699 -0.166992 4.66699 -0.5 6l-0.5 2l1 2l3 6l1 1.5c0.666992 1 2 2.5 4 4.5c4.66699 4 9.33398 6 14.001 6l2 -0.5l6 -1.5c1.33301 -0.666992 2.5 -1.33398 3.5 -2.00098s2.16699 -1.33398 3.5 -2.00098
c0.666992 -2 1.33398 -3.5 2.00098 -4.5l1 -1.5c0 -3.33301 -0.333008 -6 -1 -8c0 -4 -0.5 -6.66699 -1.5 -8s-3.16699 -3.33301 -6.5 -6c-1.33301 -2.66699 -3.33301 -4.33398 -6 -5.00098c-0.666992 -0.666992 -3.66699 -1 -9 -1zM275.993 301.007l-0.00195312 8.99707
c-0.666992 1.33301 -1.16699 2.5 -1.5 3.5s-0.833008 2.16699 -1.5 3.5c-2.66699 2.66699 -5 4.33398 -7 5.00098l-7.5 1.5c-1.66699 0.333008 -2.16699 0.5 -1.5 0.5s0.166992 -0.166992 -1.5 -0.5l-7.5 -1.5c-2.66699 -1.33301 -4.66699 -2.5 -6 -3.5l-2 -1.5
c-3.33301 -2 -5.33301 -4.33301 -6 -7c-1.33301 -3.33301 -2.33301 -5.66602 -3 -6.99902l-1 -2c0.666992 0.666992 1 -2.33301 1 -9c0.666992 -2.66699 2 -5 4 -7c2 -2.66699 3.33301 -4.5 4 -5.5s4.33398 -1.5 11.001 -1.5c-0.666992 0 -0.166992 0.166992 1.5 0.5
l7.5 1.5c3.33301 0.666992 6.33301 2.33398 9 5.00098c0.666992 0.666992 1.33398 1.5 2.00098 2.5l3 4.5c2.66699 6.66699 3.66699 9.66699 3 9zM221.991 248.004h46l3 14h-5l-2 -8h-41zM244.991 201.004c-3.33301 0 -4.99805 0.999023 -4.99805 2.99902
c-2 1.33301 -2.66699 3.33301 -2 6c0 2.66699 1.33301 5 4 7c1.33301 1.33301 3.66602 2 6.99902 2s5.66602 -0.666992 6.99902 -2c1.33301 -4 2 -6.33301 2 -7c-1.33301 -3.33301 -2.66602 -5.66602 -3.99902 -6.99902c-2.66699 -0.666992 -4.83398 -1.16699 -6.50098 -1.5
zM216.993 211.003l13.999 -10.001c4.66699 -4.66699 9.33398 -7 14.001 -7l2 0.5c1.33301 0.333008 3 0.833008 5 1.5c0.666992 -0.666992 2.5 0.333008 5.5 3s4.5 4.33398 4.5 5.00098l0.5 1.5l1.5 4.5l-0.5 2c-0.333008 1.33301 -0.5 3.33301 -0.5 6l-5 6l-1 0.5l-3 1.5
h-5c-4 0 -7.33301 -1.33301 -10 -4c-4 -4 -6.33301 -7.33301 -7 -10v-2v-2l-14 11zM238.992 160.002c-2 0 -3.66699 0.666016 -5 1.99902c-2 2 -2.66699 4.33301 -2 7c0 2.66699 1.33301 5 4 7c1.33301 1.33301 3.66602 2 6.99902 2c-1.33301 0 -1.33301 -0.166992 0 -0.5
s3.66602 -0.833008 6.99902 -1.5c1.33301 -4 2 -6.33301 2 -7c-1.33301 -3.33301 -2.66602 -5.66602 -3.99902 -6.99902c-3.33301 -0.666992 -5.66602 -1.16699 -6.99902 -1.5zM210.992 170.001l14.002 -10c4 -4.66699 8.66699 -7 14 -7c8 2 12.5 3.83301 13.5 5.5
s2.83301 5.16699 5.5 10.5l-0.5 2c-0.333008 1.33301 -0.5 3.33301 -0.5 6l-5 6c-0.666992 0.666992 -1.66699 1 -3 1h-1c-0.666992 0.666992 -2.33398 1 -5.00098 1c-8 0 -13.667 -5 -17 -15v-1c-0.666992 -0.666992 -0.833984 -1.16699 -0.500977 -1.5l0.5 -0.5l-14 10z
M232.994 118.001c-3.33301 0 -5.33398 1 -6.00098 3c-1.33301 4 -2 6.33301 -2 7c0.666992 2 2 4 4 6c0.666992 2 3.33398 3 8.00098 3c2.66699 0 4.66699 -1 6 -3c2 -1.33301 2.66699 -3.33301 2 -6c0 -4 -1.33301 -6.33301 -4 -7c-2 -2 -4.66699 -3 -8 -3z
M204.993 129.001l13.999 -10.001c4.66699 -4.66699 9.33398 -7 14.001 -7c3.33301 0 5.33301 0.333008 6 1c2.66699 1.33301 4.66699 2.66602 6 3.99902c4 2.66699 6 6.33398 6 11.001v8c-1.33301 1.33301 -2.5 2.33301 -3.5 3s-1.83301 1.33398 -2.5 2.00098l-0.5 0.5
c-0.333008 0.333008 -1.16602 0.833008 -2.49902 1.5c-0.666992 0.666992 -2.33398 1 -5.00098 1c-8 0 -13.667 -5 -17 -15l-1 -1c0 -0.666992 0.166992 -1.16699 0.5 -1.5l0.5 -0.5l-14 10zM212.992 86h6l3 16h-6zM191.992 46h7.00098l3 21l11 -14l5 -5
c3.33301 -0.666992 5.66602 -1.16699 6.99902 -1.5s1.33301 -0.5 0 -0.5c4 0 7.33301 1.33301 10 4c4 2.66699 6 6.33398 6 11.001c1.33301 3.33301 0.333008 6.66602 -3 9.99902c-2 2.66699 -5.33301 4 -10 4l-1 -6c2.66699 0 4.66699 -0.666992 6 -2c2 -2 2.66699 -4 2 -6
c0 -2 -1 -4 -3 -6c-4 -1.33301 -6.33301 -2 -7 -2c-3.33301 0 -6.33301 2 -9 6v1l-12 15h-7zM207.993 35l-6.99902 -0.000976562c-2 -0.666992 -3.33301 -1.16699 -4 -1.5l-1 -0.5c-3.33301 -1.33301 -5.33301 -3.33301 -6 -6l-0.5 -1.5
c-0.333008 -1 -0.833008 -2.83301 -1.5 -5.5c-0.666992 -5.33301 -0.5 -8.5 0.5 -9.5s2.16699 -2.5 3.5 -4.5c0.666992 -0.666992 1.66699 -1 3 -1h1c0.666992 -0.666992 2.66699 -1 6 -1h14c3.33301 0 5.33301 0.333008 6 1c2 0 3.33301 0.333008 4 1l6 6
c1.33301 2.66699 2.16602 4.66699 2.49902 6l0.5 2c0 2.66699 -0.333008 5 -1 7c-0.666992 0.666992 -1 1.33398 -1 2.00098s-0.666992 1.66699 -2 3l-3 3h-7h-13zM203.994 27.999l16.001 0.000976562h4l1 -1h1l3 -3c0.666992 -0.666992 0.666992 -2 0 -4
c0 -2.66699 -0.333008 -4.33398 -1 -5.00098l-4 -3c-0.666992 -0.666992 -1.33398 -1 -2.00098 -1h-4h-15l-2 0.5l-6 1.5c0 6 -0.333008 8.33301 -1 7l1.5 3l0.5 1c0 0.666992 0.666992 1.66699 2 3l1 1h1h4zM201.995 0l-7.00098 0.000976562
c-3.33301 0 -5.83301 -0.666992 -7.5 -2s-3.16699 -4.66602 -4.5 -9.99902c-0.666992 -4 -0.666992 -6.33301 0 -7c0.666992 -2 2 -4 4 -6c0.666992 -0.666992 1.33398 -1 2.00098 -1s1.33398 -0.333008 2.00098 -1s2.66699 -1 6 -1h14c3.33301 0 5.33301 0.333008 6 1
l3 1.5l1 0.5c4 1.33301 6.5 4.66602 7.5 9.99902s1.5 6.33301 1.5 3c0 -1.33301 -0.166992 -1.33301 -0.5 0s-0.5 3.66602 -0.5 6.99902c-0.666992 2 -1.33398 3.33301 -2.00098 4l-1 1h-4h-7h-13zM199.994 -2.99902l15.998 0.000976562c2 0 3 -0.333008 3 -1
c0.666992 0 1.33398 -0.333008 2.00098 -1c0.666992 0 1.66699 -1 3 -3c0.666992 -0.666992 0.666992 -2 0 -4c0 -2.66699 -0.666992 -4.5 -2 -5.5s-2.33301 -1.83301 -3 -2.5h-2c-0.666992 -0.666992 -2 -1 -4 -1h-15c-3.33301 0 -6 1 -8 3
c-0.666992 0.666992 -1 2.66699 -1 6l1.5 3l0.5 1c0 1.33301 0.666992 2.66602 2 3.99902h2c0.666992 0.666992 2.33398 1 5.00098 1zM195.992 -37.998l-7.00195 0.000976562l-3 -1.5l-1 -0.5c-3.33301 -1.33301 -5.33301 -3.33301 -6 -6l-0.5 -1.5
c-0.333008 -1 -0.833008 -2.83301 -1.5 -5.5c-0.666992 -4.66699 -0.666992 -7.33398 0 -8.00098c2.66699 -4 4.66699 -6 6 -6c0.666992 0 1.33398 -0.333008 2.00098 -1s2.66699 -1 6 -1h14c3.33301 0 5.33301 0.333008 6 1l3 1.5l1 0.5
c0.666992 0.666992 1.5 1.33398 2.5 2.00098s2.16699 1.66699 3.5 3c0.666992 2.66699 1.33398 4.66699 2.00098 6l1 2c0 -1.33301 -0.166992 -1.33301 -0.5 0s-0.5 3.66602 -0.5 6.99902c0 2 -1 4 -3 6l-1 0.5l-3 1.5h-7h-13zM192.99 -44.9971l15.999 0.00195312h4
c0.666992 0 1.33398 -0.333008 2.00098 -1l3 -3v-4c-0.666992 -2.66699 -1.5 -4.5 -2.5 -5.5l-2.5 -2.5h-1l-1 -1h-4h-15c-4 0 -6.66699 0.666992 -8 2c0 3.33301 -0.166992 5.66602 -0.5 6.99902s-0.5 1.33301 -0.5 0c0 1.33301 0.666992 2.66602 2 3.99902
c0 2 0.666992 3 2 3l1 1h1h4zM675.989 705.005l-4.00195 -26c-3.33301 -17.333 -8 -29 -14 -35c-7.33301 -7.33301 -17 -11 -29 -11c-11.333 0 -19.666 3.66699 -24.999 11c-5.33301 8.66699 -6.66602 20 -3.99902 34l4 27h72zM697.987 724.005l-189.997 -0.00195312l-3 -19
h80l-4 -25c-0.666992 -5.33301 -1.16699 -10.166 -1.5 -14.499s-0.5 -8.16602 -0.5 -11.499c0 -7.33301 2 -13.333 6 -18c7.33301 -15.333 21 -23 41 -23c9.33301 0 18.666 2 27.999 6c5.33301 2.66699 9.66602 5.66699 12.999 9s6.66602 7 9.99902 11
c3.33301 3.33301 6.33301 9 9 17c2.66699 8.66699 4.66699 18 6 28zM628.99 581.003l-73.9971 -0.000976562c-26 0 -45.333 -4.66699 -58 -14s-20.334 -24.333 -23.001 -45c-0.666992 -0.666992 -0.333984 -8.66699 0.999023 -24c2 -7.33301 5.66699 -13.666 11 -18.999h-15
l-3 -19h143l3 19h-70c-17.333 0 -26.333 0.333008 -27 1c-6 1.33301 -10 3 -12 5c-5.33301 2.66699 -9.33301 7.66699 -12 15c-0.666992 14.667 -1.33398 21.667 -2.00098 21c3.33301 15.333 9 26 17 32c6.66699 6.66699 21 10 43 10h76zM455.993 375.002
l86.999 0.000976562c14.667 0 23.334 -2.33301 26.001 -7c4.66699 -6.66699 7 -15 7 -25h20c1.33301 9.33301 1 15.666 -1 18.999c-3.33301 5.33301 -7.33301 10 -12 14h16l2 18h-143zM440.992 277.003l-3 -18h125l-4 -28h18l4 28h47l3 18h-47l4 27h-18l-4 -27h-125z
M571.992 198.003l-151 -55l-43 19l-3 -20l177 -77l3 21l-109 47l123 44zM735.992 773.003l-137 -910h-494l137 910h494z" />
    <glyph glyph-name="space" unicode=" " horiz-adv-x="500" 
 />
    <glyph glyph-name="exclam" unicode="!" horiz-adv-x="206" 
d="M132 840l-100 -667h67l100 667h-67zM73 0l15 99h-67l-15 -99h67z" />
    <glyph glyph-name="quotedbl" unicode="&#x22;" horiz-adv-x="318" 
d="M66 840l-32 -214h71l32 214h-71zM211 840l-32 -214h73l32 214h-73z" />
    <glyph glyph-name="numbersign" unicode="#" horiz-adv-x="773" 
d="M598 626l-44 -133h-220l44 133h-74l-43 -133h-130l-22 -66h130l-74 -227h-127l-22 -67h127l-43 -133h73l44 133h220l-44 -133h74l43 133h130l22 67h-130l74 227h130l21 66h-129l43 133h-73zM312 427h221l-74 -227h-221z" />
    <glyph glyph-name="dollar" unicode="$" horiz-adv-x="459" 
d="M319 772l10.999 68h-67l-11 -72c-46.667 -10.667 -88 -35 -124 -73c-36 -36 -57.667 -79 -65 -129c-7.33301 -50.667 1.33398 -93.667 26.001 -129c23.333 -36 57.333 -59.667 102 -71l-42 -285c-32.667 4 -59.667 19.667 -81 47c-8.66699 -8 -17.667 -15.833 -27 -23.5
s-18 -15.5 -26 -23.5c28.667 -39.333 70 -61.666 124 -66.999l-11 -71h67l11 76c48.667 11.333 90 35 124 71c35.333 37.333 57 80.666 65 129.999c6.66699 48 -2 90.667 -26 128c-25.333 36.667 -59.333 60.667 -102 72l42 286c34 -5.33301 61 -21.333 81 -48l27 24l27 24
c-31.333 40 -73 62 -125 66zM240.999 698l-39.002 -261c-25.333 10 -44.666 26.5 -57.999 49.5s-18 49.5 -14 79.5c4.66699 30 17.334 57 38.001 81s45 41 73 51zM216.997 88l39 262.001c24.667 -10.667 43.834 -27.5 57.501 -50.5s18.5 -49.5 14.5 -79.5
c-4.66699 -30.667 -17.334 -57.834 -38.001 -81.501s-45 -40.5 -73 -50.5z" />
    <glyph glyph-name="percent" unicode="%" 
d="M280 851c-38 0 -72.667 -13.667 -104 -41c-30 -27.333 -48 -60.333 -54 -99c-6 -39.333 2 -72.333 24 -99c23.333 -27.333 54 -41 92 -41c38.667 0 73.667 13.667 105 41c32 26.667 51 59.667 57 99c6 38.667 -3 71.667 -27 99c-23.333 27.333 -54.333 41 -93 41zM101 0
l611 840h-77l-610 -840h76zM496 269c38 0 68.666 -13.999 91.999 -41.999c22.667 -27.333 31.667 -60.333 27 -99c-6 -38.667 -25 -71.334 -57 -98.001c-30.667 -21.333 -65 -32 -103 -32c-39.333 0 -70.666 10.667 -93.999 32c-23.333 27.333 -32 60 -26 98
c5.33301 39.333 24 72.333 56 99c30.667 28 65.667 42 105 42zM485.999 202.001c-20.667 0 -39.3311 -7.16699 -55.998 -21.5s-26.334 -31.833 -29.001 -52.5c-3.33301 -20 1.16699 -37.167 13.5 -51.5s28.833 -21.5 49.5 -21.5c20 0 38.167 7.16699 54.5 21.5
s26.166 31.5 29.499 51.5c2.66699 20.667 -2 38.167 -14 52.5s-28 21.5 -48 21.5zM270.002 785.001c20.667 0 37.1699 -7.33301 49.5029 -22s16.833 -32 13.5 -52c-2.66699 -20 -12.334 -37.167 -29.001 -51.5s-35.334 -21.5 -56.001 -21.5c-20 0 -36 7.16699 -48 21.5
s-16.667 31.5 -14 51.5c3.33301 20 13.166 37.333 29.499 52s34.5 22 54.5 22z" />
    <glyph glyph-name="ampersand" unicode="&#x26;" horiz-adv-x="694" 
d="M525 656c8.66699 50.667 -2.66895 98 -34.002 142c-32 36 -76.333 54 -133 54c-55.333 0 -106.666 -18.667 -153.999 -56c-46 -37.333 -73 -84 -81 -140c-4.66699 -32 0 -65.667 14 -101s34.333 -71 61 -107c-20 -13.333 -39.167 -27.333 -57.5 -42
s-34.833 -31 -49.5 -49s-27.167 -37.833 -37.5 -59.5s-17.5 -46.167 -21.5 -73.5c0 -0.666992 0.333008 -0.833984 1 -0.500977l1 0.5c-9.33301 -69.333 4.66699 -125.333 42 -168c38.667 -38.667 92 -58 160 -58c54 0 101.333 13.167 142 39.5s78.334 61.5 113.001 105.5
l66.5 -59.5l47.5 -43.5l51 51l-53 48l-70 65c28 42.667 53.5 86.334 76.5 131.001s44.833 84 65.5 118h-74c-15.333 -26 -32.5 -57.833 -51.5 -95.5s-39.833 -74.5 -62.5 -110.5c-32 30 -63.167 61 -93.5 93l-87.5 96l66.5 40.5c24.333 14.333 47.5 30.333 69.5 48
s40.833 37.667 56.5 60s24.5 47.5 26.5 75.5v-4zM237.997 396c30.667 -38 64.3359 -75.001 101.003 -111.001l106 -100c-26.667 -38 -56.667 -69.167 -90 -93.5s-70 -36.5 -110 -36.5c-25.333 0 -47.833 4.16699 -67.5 12.5s-35.834 19.833 -48.501 34.5
s-21.5 32.334 -26.5 53.001s-5.5 43.667 -1.5 69c5.33301 37.333 21.166 70.333 47.499 99s56.166 53 89.499 73zM266.999 487.999c-23.333 32 -42.334 62.002 -57.001 90.002s-20 53.333 -16 76c2.66699 18.667 8.66699 36.167 18 52.5s20.833 30.166 34.5 41.499
s29.167 20.333 46.5 27s35.666 10 54.999 10c38.667 0 67.334 -12 86.001 -36s25.334 -55 20.001 -93c-3.33301 -22 -12.166 -41.5 -26.499 -58.5s-31.5 -31.833 -51.5 -44.5c-18.667 -12.667 -37.334 -24.334 -56.001 -35.001z" />
    <glyph glyph-name="quotesingle" unicode="'" horiz-adv-x="157" 
d="M133 840h-74l-36 -235h74z" />
    <glyph glyph-name="parenleft" unicode="(" horiz-adv-x="282" 
d="M139 -96c-39.333 36 -55.332 78.999 -47.999 128.999h-1l2 2l83 558c8.66699 56.667 38 103.334 88 140.001l12 79c-42.667 -20.667 -79.167 -50.167 -109.5 -88.5s-48.833 -81.5 -55.5 -129.5l-84 -559l1 -2h-2c-6.66699 -46 -0.833984 -87.167 17.499 -123.5
s46.5 -64.833 84.5 -85.5z" />
    <glyph glyph-name="parenright" unicode=")" horiz-adv-x="281" 
d="M18 -96l-11.999 -80c42.667 20.667 79 49.167 109 85.5s48.333 77.5 55 123.5h-2l3 2l84 559c6.66699 48 1 91.167 -17 129.5s-46 67.833 -84 88.5l-12 -79c39.333 -37.333 54.666 -84 45.999 -140l-83 -558v-2h-1c-7.33301 -51.333 -36 -94.333 -86 -129z" />
    <glyph glyph-name="asterisk" unicode="*" horiz-adv-x="456" 
d="M220 840l-21 -172l-152 59l-31 -68l154 -49l-125 -135l52 -42l117 140l75 -141l65 42l-84 134l172 49l-12 68l-169 -58l31 173h-72z" />
    <glyph glyph-name="plus" unicode="+" horiz-adv-x="491" 
d="M175 66h67l32 214h202l10 67h-202l32 213h-67l-32 -213h-202l-10 -67h202z" />
    <glyph glyph-name="comma" unicode="," horiz-adv-x="166" 
d="M142 78h-81l-38 -248h81z" />
    <glyph glyph-name="minus" unicode="-" horiz-adv-x="427" 
d="M376 280l10 67h-335l-10 -67h335z" />
    <glyph glyph-name="period" unicode="." horiz-adv-x="165" 
d="M117 0l12 74h-81l-12 -74h81z" />
    <glyph glyph-name="slash" unicode="/" horiz-adv-x="566" 
d="M78 0l485 840h-78l-482 -840h75z" />
    <glyph glyph-name="zero" unicode="0" horiz-adv-x="624" 
d="M585 604c10.667 66.667 -4.66602 125 -45.999 175c-40.667 48.667 -95 73 -163 73c-69.333 0 -131.333 -24.333 -186 -73c-54.667 -47.333 -87.334 -105.333 -98.001 -174l-55 -367l1 -2h-1c-10 -68 5.33301 -126 46 -174c42 -42.667 97 -64 165 -64
c66 0 127.333 21.333 184 64c56 47.333 88.667 105.333 98 174h-1l1 2zM159 604c6 47.333 29.667 89.666 71 126.999c40 36 85.333 54 136 54c49.333 0 89 -18 119 -54c30 -34.667 41.333 -77 34 -127l-55 -366l1 -2h-1c-6.66699 -48 -30.667 -90.667 -72 -128
c-41.333 -35.333 -86.333 -53 -135 -53c-50 0 -90 17.667 -120 53c-28.667 42.667 -39.667 85.334 -33 128.001h-1l1 2z" />
    <glyph glyph-name="one" unicode="1" horiz-adv-x="214" 
d="M206 840h-99l-44 -67h66l-116 -773h67z" />
    <glyph glyph-name="two" unicode="2" horiz-adv-x="630" 
d="M20 0l493.003 -0.00195312l10 66h-427c21.333 18.667 50.166 42 86.499 70l116.5 93c41.333 34 82.333 69.833 123 107.5s75.667 75.167 105 112.5c42.667 50.667 67.667 98.667 75 144c10.667 67.333 -4.66602 127.333 -45.999 180c-40 52.667 -93.667 79 -161 79
c-68 0 -130.333 -26.333 -187 -79c-56 -52 -89 -111.667 -99 -179h66c7.33301 48.667 31.666 92.667 72.999 132s87 59 137 59c49.333 0 88.666 -19.667 117.999 -59s40.333 -83.666 33 -132.999c-4.66699 -37.333 -28.667 -79.666 -72 -126.999
c-42.667 -46.667 -90.334 -93.334 -143.001 -140.001c-53.333 -47.333 -107.333 -91.333 -162 -132l-70.5 -55.5c-21 -16.333 -39.167 -31.166 -54.5 -44.499z" />
    <glyph glyph-name="three" unicode="3" horiz-adv-x="529" 
d="M322 852c-59.333 0 -113.668 -22.6689 -163.001 -68.002l40 -48c30.667 32.667 68.334 49 113.001 49c37.333 0 67.666 -15.667 90.999 -47s32 -66.333 26 -105c-5.33301 -37.333 -22.333 -68.333 -51 -93c-27.333 -25.333 -58.333 -40.666 -93 -45.999l-15 -2l-10 -68
c41.333 -9.33301 74.666 -30 99.999 -62c26.667 -31.333 36.334 -69.666 29.001 -114.999c-8 -50 -32.667 -94.667 -74 -134c-38.667 -38.667 -83.667 -58 -135 -58c-49.333 0 -89 17.667 -119 53l-52 -47c40.667 -42 94.667 -63 162 -63c68 0 129.667 23 185 69
c56 52 89.333 112 100 180c6 44 1.16699 84.5 -14.5 121.5s-39.5 66.5 -71.5 88.5c32.667 17.333 60.334 41.5 83.001 72.5s36.667 65.5 42 103.5c8.66699 56 -4 106.667 -38 152c-32.667 44.667 -77.667 67 -135 67z" />
    <glyph glyph-name="four" unicode="4" horiz-adv-x="594" 
d="M563 173l10 67h-133l90 600h-67h-15l-435 -598l-10 -69h360l-26 -173h67l26 173h133zM88 240l359 492l-74 -492h-285z" />
    <glyph glyph-name="five" unicode="5" horiz-adv-x="628" 
d="M266 -2c77.333 0 147.334 26.332 210.001 78.999c63.333 57.333 100.666 125 111.999 203c12 77.333 -5.33301 143.333 -52 198s-108.667 82 -186 82c-48.667 0 -94.334 -11.333 -137.001 -34l80 247h302l10 67h-333h-25l-116 -357l65 -40
c45.333 33.333 93.333 50 144 50c58.667 0 105.667 -21 141 -63c36 -40.667 49.333 -90.667 40 -150s-38 -111.666 -86 -156.999c-49.333 -45.333 -102.666 -68 -159.999 -68c-58.667 0 -105.667 22.667 -141 68c-35.333 48 -48.666 100.333 -39.999 157h-66
c-10.667 -78 6.66602 -145.667 51.999 -203c46.667 -52.667 108.667 -79 186 -79z" />
    <glyph glyph-name="six" unicode="6" horiz-adv-x="619" 
d="M263 -2c77.333 0 147.336 26.3359 210.003 79.0029c63.333 57.333 100.666 125 111.999 203c11.333 72 -3.66699 136.667 -45 194c-40.667 56.667 -95.334 88.667 -164.001 96c-30 3.33301 -59.667 1.33301 -89 -6l235 276h-86l-178.5 -205
c-58.333 -68 -114.5 -137.333 -168.5 -208c-0.666992 -0.666992 -1.16699 -1.33398 -1.5 -2.00098s-0.833008 -1.33398 -1.5 -2.00098c-32.667 -42.667 -53 -90.334 -61 -143.001c-10.667 -78 6.66602 -145.667 51.999 -203c46.667 -52.667 108.667 -79 186 -79z
M518.003 280.003c-9.33301 -59.333 -38 -111.667 -86 -157c-49.333 -45.333 -102.666 -68 -159.999 -68c-58.667 0 -105.667 22.667 -141 68c-35.333 48 -48.666 100.333 -39.999 157c7.33301 40.667 23.333 77.334 48 110.001l20 23
c23.333 24.667 50.666 46.167 81.999 64.5s64 27.5 98 27.5c3.33301 0 7.16602 -0.166992 11.499 -0.5s9.5 -0.833008 15.5 -1.5c50.667 -6.66699 90.667 -32.334 120 -77.001c30 -43.333 40.667 -92 32 -146z" />
    <glyph glyph-name="seven" unicode="7" horiz-adv-x="578" 
d="M81 840l-10 -67h420l-477 -773h74l476 773l10 67h-493z" />
    <glyph glyph-name="eight" unicode="8" horiz-adv-x="579" 
d="M240 -2c67.333 0 128.666 22.998 183.999 68.998c56 52 89.333 112 100 180c3.33301 22.667 3.33301 44.834 0 66.501s-9.16602 41.834 -17.499 60.501s-19.333 35.667 -33 51s-29.167 28 -46.5 38c30 18.667 55.333 43 76 73s33.334 62.333 38.001 97
c8.66699 56 -4 106.667 -38 152c-32.667 44.667 -77.667 67 -135 67c-58 0 -110.333 -22.333 -157 -67c-46 -44 -73.667 -94.667 -83 -152c-10.667 -72 10.666 -128.667 63.999 -170c-20 -10 -39.167 -22.667 -57.5 -38s-34.666 -32.5 -48.999 -51.5
s-26.333 -39.333 -36 -61s-15.834 -43.5 -18.501 -65.5c-11.333 -68 3.66699 -128 45 -180c42 -46 96.667 -69 164 -69zM358 784.998c37.333 0 67.667 -15.667 91 -47s32 -66.333 26 -105c-5.33301 -39.333 -24 -72.333 -56 -99c-33.333 -27.333 -68.333 -41 -105 -41
c-39.333 0 -70.666 13.667 -93.999 41c-22.667 25.333 -31.334 58.333 -26.001 99c6 38.667 25 73.667 57 105c33.333 31.333 69 47 107 47zM249.001 54.998c-51.333 0 -91.332 19.334 -119.999 58.001c-29.333 39.333 -40 84 -32 134
c6.66699 49.333 30.667 91.666 72 126.999s86.666 53 135.999 53s89 -17.667 119 -53c30 -34.667 41.333 -77 34 -127c-8 -50 -32.667 -94.667 -74 -134c-38.667 -38.667 -83.667 -58 -135 -58z" />
    <glyph glyph-name="nine" unicode="9" horiz-adv-x="619" 
d="M358 852c-75.333 0 -145.667 -29.668 -211 -89.001c-64 -58 -101.667 -125.667 -113 -203c-10.667 -72 4 -136.667 44 -194s95.333 -89.333 166 -96c29.333 -3.33301 59 -1.33301 89 6l-236 -276h86l178 205c58 68 114.333 137.333 169 208l1 1l3 3
c32.667 44 52.667 91.667 60 143c10.667 76.667 -6.33301 144.334 -51 203.001c-47.333 59.333 -109 89 -185 89zM99.999 559.999c8.66699 58.667 37.666 110.668 86.999 156.001c48.667 46 102.334 69 161.001 69c58 0 104.667 -23 140 -69
c34.667 -45.333 47.667 -97.333 39 -156c-6 -40.667 -21.333 -77.334 -46 -110.001h-1l-20 -23c-23.333 -24.667 -50.666 -46.167 -81.999 -64.5s-64 -27.5 -98 -27.5c-3.33301 0 -7 0.166992 -11 0.5s-9 0.833008 -15 1.5c-50.667 6.66699 -91.334 32 -122.001 76
c-29.333 45.333 -40 94.333 -32 147z" />
    <glyph glyph-name="colon" unicode=":" horiz-adv-x="181" 
d="M10 0h66l20 133h-66zM104 626l-20 -133h66l20 133h-66z" />
    <glyph glyph-name="semicolon" unicode=";" horiz-adv-x="196" 
d="M121 626l-20 -133h66l20 133h-66zM47 133l-38 -257h66l38 257h-66z" />
    <glyph glyph-name="less" unicode="&#x3c;" horiz-adv-x="438" 
d="M397 533l13 87l-408 -307l316 -306l13 87l-228 219z" />
    <glyph glyph-name="equal" unicode="=" horiz-adv-x="445" 
d="M380 247h-335l-10 -67h335zM400 380l10 67h-335l-10 -67h335z" />
    <glyph glyph-name="greater" unicode="&#x3e;" horiz-adv-x="437" 
d="M106 533l225 -220l-291 -219l-13 -87l408 306l-316 307z" />
    <glyph glyph-name="question" unicode="?" horiz-adv-x="455" 
d="M372 626c-5.33301 -33.333 -18.666 -60.667 -39.999 -82l-34.5 -31l-36.5 -30c-12.667 -9.33301 -24.834 -19.333 -36.501 -30s-23.167 -22.667 -34.5 -36c-22 -24 -36.667 -57 -44 -99l-22 -145h67l22 144c6.66699 36.667 20.334 63.667 41.001 81
c11.333 11.333 22.833 21.833 34.5 31.5l35.5 28.5c24.667 18.667 48.667 40.667 72 66c22 26 36.333 60 43 102c8.66699 56.667 -4.66602 109 -39.999 157c-35.333 46 -82 69 -140 69c-58.667 0 -112.334 -23 -161.001 -69c-48.667 -46.667 -77.334 -99 -86.001 -157h66
c6 40 25.667 76.667 59 110c32.667 32.667 70 49 112 49c40 0 72 -16.333 96 -49c24 -33.333 33 -70 27 -110zM98 -0.000976562h67l15 99h-67z" />
    <glyph glyph-name="at" unicode="@" horiz-adv-x="738" 
d="M699 527c12.667 86 -7.00098 159.668 -59.001 221.001s-121 92 -207 92c-85.333 0 -163.666 -30.667 -234.999 -92c-70.667 -61.333 -112.334 -135.333 -125.001 -222l-32 -214c-13.333 -87.333 6.33398 -161 59.001 -221c50.667 -60.667 119.667 -91 207 -91
c82.667 0 159.667 29.667 231 89l-41 45c-57.333 -45.333 -117.333 -68 -180 -68c-68.667 0 -123.334 24 -164.001 72c-40.667 48.667 -56 107 -46 175l32 213c10 66.667 42.667 124.667 98 174c54.667 48.667 116.667 73 186 73c68 0 122.333 -24.333 163 -73
c41.333 -48 57 -106 47 -174l-35 -231l-2 -12l-1.5 -9l-0.5 -3h1c-4 -20.667 -16.667 -31 -38 -31c-22 0 -31.333 11 -28 33v3l14 92l3 19c7.33301 47.333 -3.66699 88 -33 122s-67.666 51 -114.999 51c-48 0 -91.333 -17 -130 -51s-61.667 -74.667 -69 -122l-6 -40
c-7.33301 -49.333 3.33398 -90.333 32.001 -123c28.667 -34 67 -51 115 -51c48.667 0 91.334 16.333 128.001 49c14 -32.667 40.333 -49 79 -49c29.333 0 55.666 11 78.999 33c23.333 23.333 35.666 49.666 36.999 78.999l1 8l36 233zM265.999 387.001
c2 14.667 6.66699 28.5 14 41.5s16.5 24.333 27.5 34s23.333 17.167 37 22.5s28.167 8 43.5 8c30 0 53.667 -10.167 71 -30.5s24 -45.5 20 -75.5l-6 -40c-2 -15.333 -6.83301 -29.5 -14.5 -42.5s-17 -24.333 -28 -34s-23.5 -17.167 -37.5 -22.5s-28.333 -8 -43 -8
s-28 2.83301 -40 8.5s-22 13.167 -30 22.5s-13.833 20.5 -17.5 33.5s-4.5 27.167 -2.5 42.5z" />
    <glyph glyph-name="A" unicode="A" 
d="M439 840l-429 -840h68l144 280h356l60 -280h71l-180 840h-90zM256 347l218 423l90 -423h-308z" />
    <glyph glyph-name="B" unicode="B" horiz-adv-x="671" 
d="M604 633c8 55.333 -4.33203 103.332 -36.999 143.999c-33.333 40 -77.333 61 -132 63h-280l-126 -840h313c68 0 129.667 24 185 72c56 48.667 89 107 99 175c4 26 4 50.833 0 74.5s-11.333 45.334 -22 65.001s-24.334 37 -41.001 52s-35.667 27.167 -57 36.5
c56 42 88.667 94.667 98 158zM169.001 492.999l42 280h206c38.667 0 69.667 -13.667 93 -41c24 -27.333 33 -60.333 27 -99c-6 -39.333 -25 -72.333 -57 -99c-31.333 -27.333 -66.333 -41 -105 -41h-206zM159.001 426.999h227.002v-2
c3.33301 0.666992 6.66602 1.16699 9.99902 1.5s6.66602 0.5 9.99902 0.5c49.333 0 89 -17.667 119 -53c30 -34.667 41.333 -77 34 -127c-8 -54 -34.667 -99 -80 -135c-47.333 -35.333 -96.333 -50 -147 -44v-2h-227z" />
    <glyph glyph-name="C" unicode="C" horiz-adv-x="663" 
d="M542 81l-40.999 47c-54.667 -48.667 -116.334 -73 -185.001 -73s-123.334 24 -164.001 72c-40.667 48.667 -56 107 -46 175l35 236c10.667 68.667 43.334 126.667 98.001 174c54.667 48.667 116.667 73 186 73c68 0 122.333 -24.333 163 -73l55 47
c-52 61.333 -121.333 92 -208 92c-85.333 0 -163.666 -30.667 -234.999 -92c-70 -61.333 -111.667 -135 -125 -221l-35 -236c-12.667 -86 7 -159.667 59 -221c52 -55.333 121.333 -83 208 -83c87.333 0 165.666 27.667 234.999 83z" />
    <glyph glyph-name="D" unicode="D" horiz-adv-x="708" 
d="M286 66h-181.001l74 494l32 213h90h91c67.333 0 121.333 -24.333 162 -73c41.333 -48 57 -106 47 -174h1h-1l-32 -213c-10 -68 -43 -126.333 -99 -175c-55.333 -48 -116.666 -72 -183.999 -72zM667.999 526c12.667 86.667 -6.99902 160.667 -58.999 222s-121 92 -207 92
h-247l-62 -413l-64 -427h247c85.333 0 163.666 30.667 234.999 92c70 60 111.667 133.667 125 221z" />
    <glyph glyph-name="E" unicode="E" horiz-adv-x="652" 
d="M155 840l-126 -840h493l10 66h-427l54 361h294l12 79h-294l40 267h427l10 67h-493z" />
    <glyph glyph-name="F" unicode="F" horiz-adv-x="648" 
d="M155 840l-126 -840h66l64 427h294l12 79h-294l40 267h427l10 67h-493z" />
    <glyph glyph-name="G" unicode="G" horiz-adv-x="710" 
d="M106 302l34.999 236c10.667 68.667 43.334 126.667 98.001 174c54.667 48.667 116.667 73 186 73c68 0 122.333 -24.333 163 -73l55 47c-52 61.333 -121.333 92 -208 92c-85.333 0 -163.666 -30.667 -234.999 -92c-70 -61.333 -111.667 -135 -125 -221l-35 -236
c-12.667 -86 7 -159.667 59 -221c52 -55.333 121.333 -83 208 -83s164.667 27.667 234 83c70 60 111.667 133.667 125 221l19 125h-315l-12 -80h249l-7 -45c-10 -68 -43 -126.333 -99 -175c-55.333 -48 -117 -72 -185 -72c-68.667 0 -123.334 24 -164.001 72
c-40.667 48.667 -56 107 -46 175z" />
    <glyph glyph-name="H" unicode="H" horiz-adv-x="746" 
d="M156 840l-126 -840h66l64 427h427l-64 -427h67l126 840h-67l-52 -347h-427l52 347h-66z" />
    <glyph glyph-name="I" unicode="I" horiz-adv-x="209" 
d="M201 840h-67l-126 -840h67z" />
    <glyph glyph-name="J" unicode="J" horiz-adv-x="671" 
d="M580 840l-79.999 -538c-10.667 -68 -44 -126.333 -100 -175c-56 -48 -117.667 -72 -185 -72c-68 0 -122.333 24.333 -163 73l-51 -47c50 -55.333 118.333 -83 205 -83c87.333 0 165.666 27.667 234.999 83c70 61.333 111.667 135 125 221l80 538h-66z" />
    <glyph glyph-name="K" unicode="K" horiz-adv-x="711" 
d="M155 840l-126 -840h66l42 280l93 93l257 -373h86l-292 425l410 415h-87l-451 -456l68 456h-66z" />
    <glyph glyph-name="L" unicode="L" horiz-adv-x="529" 
d="M152 840l-126 -840h493l10 66h-427l116 774h-66z" />
    <glyph glyph-name="M" unicode="M" horiz-adv-x="974" 
d="M815 0l126 840h-124l-377 -734l-157 734h-124l-126 -840h66l120 802l173 -802h64l412 802l-120 -802h67z" />
    <glyph glyph-name="N" unicode="N" horiz-adv-x="814" 
d="M157 840l-126 -840h66l117 780l334 -780h109l126 840h-66l-117 -780l-334 780h-109z" />
    <glyph glyph-name="O" unicode="O" horiz-adv-x="743" 
d="M308 -2c84.667 0 162.332 27.334 232.999 82.001c70 61.333 112 134.666 126 219.999h1l35 238h-1c13.333 87.333 -6.33398 161 -59.001 221c-52 61.333 -121 92 -207 92c-85.333 0 -163.666 -30.667 -234.999 -92c-70 -61.333 -111.667 -135 -125 -221l-35 -238
c-13.333 -86.667 6.33398 -160 59.001 -220c52 -54.667 121.333 -82 208 -82zM316.998 55.001c-68.667 0 -123.334 24 -164.001 72c-40.667 48.667 -56 107 -46 175l35 236c10.667 68.667 43.334 126.667 98.001 174c54.667 48.667 116.667 73 186 73
c68 0 122.333 -24.333 163 -73c42 -48 57.667 -106 47 -174l-35 -236c-10 -68 -43 -126.333 -99 -175c-55.333 -48 -117 -72 -185 -72z" />
    <glyph glyph-name="P" unicode="P" horiz-adv-x="691" 
d="M155 840l-126 -840h66l42 280h214c77.333 0 147.333 27.333 210 82c63.333 54.667 100.666 120.667 111.999 198c10.667 76 -6.66602 141.667 -51.999 197c-47.333 55.333 -109.333 83 -186 83h-280zM361 347l-213.999 -0.000976562l64 426h214
c58.667 0 105.667 -21 141 -63c35.333 -41.333 48.666 -91.333 39.999 -150c-9.33301 -59.333 -38 -109.666 -86 -150.999c-47.333 -41.333 -100.333 -62 -159 -62z" />
    <glyph glyph-name="Q" unicode="Q" horiz-adv-x="745" 
d="M507 53l46 -53h94l-85 99c59.333 59.333 94.333 127 105 203l35 236c13.333 87.333 -6.33398 161 -59.001 221c-52 61.333 -121 92 -207 92c-85.333 0 -163.666 -30.667 -234.999 -92c-70 -61.333 -111.667 -135 -125 -221l-35 -236c-12.667 -86 7 -159.667 59 -221
c52 -55.333 121.333 -83 208 -83c72 0 138.333 18.333 199 55zM410 278h-94.999l152 -177c-46.667 -30.667 -96.667 -46 -150 -46c-68.667 0 -123.334 24 -164.001 72c-40.667 48.667 -56 107 -46 175l35 236c10.667 68.667 43.334 126.667 98.001 174
c54.667 48.667 116.667 73 186 73c68 0 122.333 -24.333 163 -73c42 -48 57.667 -106 47 -174l-35 -236c-8.66699 -59.333 -35.334 -111.333 -80.001 -156z" />
    <glyph glyph-name="R" unicode="R" horiz-adv-x="711" 
d="M155 840l-126.001 -840h66l42 280h214c8 0 21.667 1 41 3l121 -283h77l-129 301c54 21.333 100.333 55.333 139 102c40 48 64.333 100.333 73 157c10.667 76 -6.66602 141.667 -51.999 197c-47.333 55.333 -109.333 83 -186 83h-280zM360.999 347l-213.999 -0.000976562
l64 426h214c58.667 0 105.667 -21 141 -63c35.333 -41.333 48.666 -91.333 39.999 -150c-9.33301 -59.333 -38 -109.666 -86 -150.999c-47.333 -41.333 -100.333 -62 -159 -62z" />
    <glyph glyph-name="S" unicode="S" horiz-adv-x="502" 
d="M334 851c-56.667 0 -108.331 -20.3369 -154.998 -61.0039c-46.667 -41.333 -74.334 -89.666 -83.001 -144.999c-10.667 -69.333 0.666016 -118.666 33.999 -147.999c18 -14.667 36.5 -27.5 55.5 -38.5s38.5 -20.833 58.5 -29.5c21.333 -8.66699 41.5 -18.167 60.5 -28.5
s37.167 -21.5 54.5 -33.5c34 -24 46.333 -68 37 -132c-6.66699 -49.333 -30.667 -91.666 -72 -126.999s-86.333 -53 -135 -53c-49.333 0 -89 17.667 -119 53l-55 -47c42.667 -42 97.667 -63 165 -63c66.667 0 127.667 21 183 63c56 48 89 106 99 174
c11.333 78 0.333008 132.667 -33 164c-34.667 32.667 -71.667 57.334 -111 74.001c-22.667 9.33301 -43.5 19 -62.5 29l-53.5 29c-34 20.667 -47 58.667 -39 114c6 38 24.667 70.667 56 98c30.667 28 65.667 42 105 42c43.333 0 76.333 -16.333 99 -49l54 48
c-34 44.667 -81.667 67 -143 67z" />
    <glyph glyph-name="T" unicode="T" horiz-adv-x="588" 
d="M586 840h-560l-10 -67h247l-116 -773h66l116 773h247z" />
    <glyph glyph-name="U" unicode="U" horiz-adv-x="780" 
d="M753 840l-67.0029 0.000976562l-80 -538c-10.667 -68 -44 -126.333 -100 -175c-55.333 -48 -116.666 -72 -183.999 -72c-68 0 -123 24 -165 72c-40.667 48.667 -55.667 107 -45 175l80 538h-66l-81 -540c-13.333 -86 6.33398 -159.333 59.001 -220
c52.667 -54.667 122.334 -82 209.001 -82c86 0 163.333 27.333 232 82c71.333 61.333 113.333 134.666 126 219.999h1z" />
    <glyph glyph-name="V" unicode="V" horiz-adv-x="744" 
d="M94 840h-68l177 -840h100l432 840h-71l-402 -783z" />
    <glyph glyph-name="W" unicode="W" horiz-adv-x="1041" 
d="M952 840l-334 -798l-44 798h-95l-284 -798l-93 798h-67l97 -840h118l260 727l42 -727h118l351 840h-69z" />
    <glyph glyph-name="X" unicode="X" horiz-adv-x="734" 
d="M634 840h77l-306 -420l180 -420h-78l-150 354l-257 -354h-77l305 420l-179 420h77l151 -354z" />
    <glyph glyph-name="Y" unicode="Y" horiz-adv-x="666" 
d="M583 840l-306 -422l-180 422h-75l210 -497l-51 -343h66l51 343l362 497h-77z" />
    <glyph glyph-name="Z" unicode="Z" horiz-adv-x="711" 
d="M161 840h537h1l-563 -774h423l-10 -66h-537l561 773h-422z" />
    <glyph glyph-name="bracketleft" unicode="[" horiz-adv-x="376" 
d="M173 840l-157 -1044h200l10 67h-134l137 910h134l10 67h-200z" />
    <glyph glyph-name="backslash" unicode="\" horiz-adv-x="441" 
d="M360 0h77l-359 840h-75z" />
    <glyph glyph-name="bracketright" unicode="]" horiz-adv-x="377" 
d="M360 840h-200l-10 -67h133l-137 -910h-133l-10 -67h200z" />
    <glyph glyph-name="asciicircum" unicode="^" horiz-adv-x="317" 
d="M177 868l-162 -142l39 -47l109 94l80 -94l54 47z" />
    <glyph glyph-name="underscore" unicode="_" horiz-adv-x="650" 
d="M41 -57h560l8 57h-560z" />
    <glyph glyph-name="grave" unicode="`" horiz-adv-x="232" 
d="M7 840l142 -214h67l-102 214h-107z" />
    <glyph glyph-name="a" unicode="a" horiz-adv-x="668" 
d="M613 358c11.333 78.667 -6.33398 144.666 -53.001 197.999c-46 54.667 -107.667 82 -185 82c-76.667 0 -146.667 -27.667 -210 -83s-100.666 -121 -111.999 -197l-13 -89c-12 -77.333 5.33301 -143.333 52 -198c46.667 -48.667 109 -73 187 -73
c42.667 0 84.167 8.33301 124.5 25s75.833 41.334 106.5 74.001c0.666992 -28 10.167 -51.167 28.5 -69.5s42.5 -27.5 72.5 -27.5h14l10 66h-13c-35.333 0 -50.333 18 -45 54zM546 357.999l-13.001 -89.001c-9.33301 -59.333 -38 -109.666 -86 -150.999
c-47.333 -42 -100.333 -63 -159 -63c-57.333 0 -104.666 20.667 -141.999 62c-36 42 -49.333 92.667 -40 152l13 89c8.66699 58.667 37.334 108.667 86.001 150c48 42 101.333 63 160 63s105.667 -21 141 -63c35.333 -41.333 48.666 -91.333 39.999 -150z" />
    <glyph glyph-name="b" unicode="b" horiz-adv-x="640" 
d="M616 358c11.333 78.667 -6.33301 144.667 -53 198c-46 54.667 -107.667 82 -185 82c-42.667 0 -84 -9.66699 -124 -29s-75.333 -45 -106 -77l46 308h-66l-85 -571c-12 -77.333 5.33301 -143.333 52 -198c46.667 -48.667 109 -73 187 -73c76 0 145.333 24.333 208 73
c63.333 55.333 101 121.333 113 198zM549.001 358l-13.001 -89.001c-9.33301 -59.333 -38 -109.666 -86 -150.999c-47.333 -42 -100.333 -63 -159 -63c-57.333 0 -104.666 20.667 -141.999 62c-36 42 -49.333 92.667 -40 152l13 89
c8.66699 58.667 37.334 108.667 86.001 150c48 42 101.333 63 160 63s105.667 -21 141 -63c35.333 -41.333 48.666 -91.333 39.999 -150z" />
    <glyph glyph-name="c" unicode="c" horiz-adv-x="586" 
d="M492 77l-40.0039 47c-50 -46 -105.333 -69 -166 -69c-57.333 0 -104.666 20.667 -141.999 62c-36 42 -49.333 92.667 -40 152l13 89c8.66699 58.667 37.334 108.667 86.001 150c48 42 101.333 63 160 63c62 0 110.667 -22.667 146 -68l54 47
c-46.667 58.667 -110 88 -190 88c-76.667 0 -146.667 -27.667 -210 -83s-100.666 -121 -111.999 -197l-13 -89c-12 -77.333 5.33301 -143.333 52 -198c46.667 -48.667 109 -73 187 -73c80.667 0 152.334 26.333 215.001 79z" />
    <glyph glyph-name="d" unicode="d" horiz-adv-x="694" 
d="M36 358l-13.001 -89c-12 -77.333 5.33301 -143.333 52 -198c46.667 -48.667 109 -73 187 -73c76.667 0 146.334 24.333 209.001 73c62.667 54.667 100 120.667 112 198l85 571h-67l-46 -308c-20.667 32 -48 57.667 -82 77s-72.333 29 -115 29
c-78 0 -148.333 -27.333 -211 -82c-63.333 -55.333 -100.333 -121.333 -111 -198zM101.999 358c8.66699 58.667 37.333 108.668 86 150.001c48 42 101.333 63 160 63s105.667 -21 141 -63c35.333 -41.333 48.666 -91.333 39.999 -150l-13 -89
c-9.33301 -59.333 -38 -110 -86 -152c-47.333 -41.333 -100.333 -62 -159 -62s-106 21 -142 63c-35.333 43.333 -48.666 93.666 -39.999 150.999z" />
    <glyph glyph-name="e" unicode="e" horiz-adv-x="647" 
d="M494 77l-40.002 47c-50 -46 -105.333 -69 -166 -69c-57.333 0 -104.666 20.667 -141.999 62c-36 42 -49.333 92.667 -40 152l1 11h494l12 78c12 78 -5.66699 144 -53 198c-46.667 54.667 -108.334 82 -185.001 82s-146.667 -27.667 -210 -83s-100.666 -121 -111.999 -197
l-13 -89c-12 -77.333 5.33301 -143.333 52 -198c46.667 -48.667 109 -73 187 -73c80.667 0 152.334 26.333 215.001 79zM543.998 347h-427l2 11c8.66699 58.667 37.334 108.667 86.001 150c48 42 101.333 63 160 63s105.667 -21 141 -63
c35.333 -41.333 48.666 -91.333 39.999 -150z" />
    <glyph glyph-name="f" unicode="f" horiz-adv-x="310" 
d="M45 0h67l84 560h100l10 66h-100l13 85c2.66699 20.667 12.167 38.167 28.5 52.5s34.833 21.5 55.5 21.5s37 -7.33301 49 -22l54 47c-23.333 28 -54.333 42 -93 42c-39.333 0 -74.333 -14 -105 -42c-32 -26.667 -50.667 -59.667 -56 -99l-13 -85h-100l-10 -66h100z" />
    <glyph glyph-name="g" unicode="g" horiz-adv-x="651" 
d="M612 358c12 77.333 -5.33398 143.332 -52.001 197.999s-108.667 82 -186 82c-76.667 0 -146.667 -27.667 -210 -83s-100.666 -121 -111.999 -197l-13 -89c-12 -77.333 5.33301 -143.333 52 -198c46.667 -48.667 109 -73 187 -73c42.667 0 83.667 7.33301 123 22
s74 37.334 104 68.001l-4 -22c-8 -52 -36 -98.667 -84 -140c-47.333 -42 -100.333 -63 -159 -63c-62 0 -110.667 22.667 -146 68l-54 -47c46 -58.667 109.333 -88 190 -88c76.667 0 146.667 27.667 210 83c62 54.667 98.667 117 110 187l31 203zM544.999 357.999
l-13.002 -89.001c-9.33301 -59.333 -38 -109.666 -86 -150.999c-47.333 -42 -100.333 -63 -159 -63c-57.333 0 -104.666 20.667 -141.999 62c-35.333 43.333 -48.666 94 -39.999 152l13 89c8.66699 58.667 37.334 108.667 86.001 150c48 42 101.333 63 160 63
s105.667 -21 141 -63c35.333 -41.333 48.666 -91.333 39.999 -150z" />
    <glyph glyph-name="h" unicode="h" horiz-adv-x="708" 
d="M643 358c11.333 78.667 -6.33398 144.667 -53.001 198c-46 54.667 -107.667 82 -185 82c-42.667 0 -84 -9.66699 -124 -29s-75 -45 -105 -77l46 308h-67l-74 -493l-52 -347h67l54 358c8.66699 58.667 36.667 108.667 84 150c48.667 42 102.334 63 161.001 63
c58 0 104.667 -21 140 -63c36 -41.333 49.667 -91.333 41 -150l-54 -358h67z" />
    <glyph glyph-name="i" unicode="i" horiz-adv-x="207" 
d="M168 626h-67l-94 -626h67zM200 840h-67l-17 -111h67z" />
    <glyph glyph-name="j" unicode="j" horiz-adv-x="215" 
d="M163 626l-65.9971 -0.000976562l-103 -690c-2.66699 -20 -12.334 -37.167 -29.001 -51.5s-34.334 -21.5 -53.001 -21.5c-17.333 0 -31.333 7 -42 21l-55 -46c22.667 -28 51.667 -42 87 -42c36.667 0 70.667 14 102 42c31.333 26.667 49.666 59.334 54.999 98.001z
M129.003 839.999l-16 -111h66l16 111h-66z" />
    <glyph glyph-name="k" unicode="k" horiz-adv-x="604" 
d="M155 840l-126 -840h66l22 148l137 119l227 -267h95l-268 314l360 312h-95l-442 -383l90 597h-66z" />
    <glyph glyph-name="l" unicode="l" horiz-adv-x="222" 
d="M189 840h-66l-108 -720c-4.66699 -34 2.33301 -62.333 21 -85c20 -23.333 46.667 -35 80 -35h13l10 66h-12c-36 0 -51.333 18 -46 54z" />
    <glyph glyph-name="m" unicode="m" horiz-adv-x="943" 
d="M458 0l64.001 427c7.33301 40 27 73.667 59 101c32.667 28.667 69.334 43 110.001 43s72.334 -14.333 95.001 -43c24 -27.333 33.667 -61 29 -101l-64 -427h67l64 423c9.33301 60 -4 110.333 -40 151c-34.667 42.667 -81.667 64 -141 64c-38 0 -74.167 -9 -108.5 -27
s-63.166 -42 -86.499 -72c-14.667 30 -36.334 54 -65.001 72s-62 27 -100 27c-60.667 0 -114.334 -21.333 -161.001 -64c-47.333 -43.333 -75.333 -93.666 -84 -150.999l-64 -423h66l64 423c4.66699 40 23.667 74.667 57 104c35.333 29.333 72.666 44 111.999 44
s71.666 -14.667 96.999 -44c24.667 -28.667 34 -63.334 28 -104.001l-64 -423h66z" />
    <glyph glyph-name="n" unicode="n" horiz-adv-x="685" 
d="M587 0l53.999 358.001c11.333 78.667 -6.33398 144.667 -53.001 198c-46 54.667 -107.667 82 -185 82c-75.333 0 -145.666 -27.667 -210.999 -83c-62.667 -54.667 -99.667 -120.334 -111 -197.001l-54 -358h67l54 358c8.66699 58.667 36.667 108.667 84 150
c48.667 42 102.334 63 161.001 63c58 0 104.667 -21 140 -63c36 -41.333 49.667 -91.333 41 -150l-54 -358h67z" />
    <glyph glyph-name="o" unicode="o" horiz-adv-x="651" 
d="M612 358c11.333 78.667 -6.33398 144.667 -53.001 198c-46 54.667 -107.667 82 -185 82c-76.667 0 -146.667 -27.667 -210 -83s-100.666 -121 -111.999 -197l-13 -89c-12 -77.333 5.33301 -143.333 52 -198c46.667 -48.667 109 -73 187 -73c76 0 145.333 24.333 208 73
c63.333 55.333 101 121.333 113 198zM545 358l-13.001 -89.001c-9.33301 -59.333 -38 -109.666 -86 -150.999c-47.333 -42 -100.333 -63 -159 -63c-57.333 0 -104.666 20.667 -141.999 62c-36 42 -49.333 92.667 -40 152l13 89c8.66699 58.667 37.334 108.667 86.001 150
c48 42 101.333 63 160 63s105.667 -21 141 -63c35.333 -41.333 48.666 -91.333 39.999 -150z" />
    <glyph glyph-name="p" unicode="p" horiz-adv-x="630" 
d="M606 358c12 76.667 -5.66504 142.669 -52.998 198.002c-46.667 54.667 -108.334 82 -185.001 82s-146.667 -27.667 -210 -83c-62.667 -54.667 -100 -120.334 -112 -197.001l-1 -11h-2l-81 -540h65l44 290c21.333 -32.667 49.166 -57.334 83.499 -74.001
s73.5 -25 117.5 -25c76 0 145.333 24.333 208 73c64 54.667 101.667 120.667 113 198zM540.002 358.002l-13 -89.001c-9.33301 -59.333 -38 -109.666 -86 -150.999c-48 -42 -101.333 -63 -160 -63c-57.333 0 -104.666 20.667 -141.999 62c-35.333 43.333 -48.333 94 -39 152
l13 89c9.33301 58.667 37.666 108.667 84.999 150c48 42 101.333 63 160 63s106 -21 142 -63c36 -40.667 49.333 -90.667 40 -150z" />
    <glyph glyph-name="q" unicode="q" horiz-adv-x="640" 
d="M597 358c12 77.333 -5.33398 143.334 -52.001 198.001s-108.667 82 -186 82c-76.667 0 -146.667 -27.667 -210 -83c-62.667 -54.667 -100 -120.334 -112 -197.001l-13 -89c-11.333 -77.333 6 -143.333 52 -198c46.667 -48.667 109 -73 187 -73
c42.667 0 83.834 8 123.501 24s74.5 40 104.5 72l-44 -287h67l72 473zM529.999 358.001l-13.002 -89.001c-9.33301 -59.333 -38 -109.666 -86 -150.999c-47.333 -42 -100.333 -63 -159 -63c-57.333 0 -104.666 20.667 -141.999 62c-35.333 43.333 -48.666 94 -39.999 152
l13 89c9.33301 59.333 38 109.333 86 150c48 42 101.333 63 160 63s105.667 -21 141 -63c36 -40.667 49.333 -90.667 40 -150z" />
    <glyph glyph-name="r" unicode="r" horiz-adv-x="527" 
d="M-8 0l64.998 0.000976562l54 358c8.66699 58 37 108 85 150c48.667 42 102.334 63 161.001 63c62 0 110.667 -22.667 146 -68l54 47c-46.667 58.667 -110 88 -190 88c-75.333 0 -145.666 -27.667 -210.999 -83c-62.667 -54.667 -99.667 -120.334 -111 -197.001z" />
    <glyph glyph-name="s" unicode="s" horiz-adv-x="375" 
d="M77 0c-48 5.33301 -84.335 28.999 -109.002 70.999l59 39c15.333 -26.667 38.666 -42.334 69.999 -47.001c31.333 -6 62.666 0.666992 93.999 20c30.667 18.667 51 45 61 79c14.667 48.667 10.667 83.334 -12 104.001c-12 10.667 -24.667 20.834 -38 30.501
s-27.666 18.834 -42.999 27.501c-15.333 9.33301 -29.666 19.166 -42.999 29.499s-25.333 21.833 -36 34.5c-21.333 25.333 -23 66 -5 122c12.667 42.667 38 76.334 76 101.001c38.667 24.667 79.334 33.667 122.001 27c42.667 -8.66699 74 -31 94 -67l-60 -38
c-11.333 21.333 -29.666 34.333 -54.999 39c-24.667 4 -48 -1 -70 -15s-37 -33.333 -45 -58c-12 -40.667 -6 -70.334 18 -89.001c24 -18 51 -36 81 -54c32 -19.333 58 -43 78 -71c20.667 -29.333 21.667 -74.333 3 -135c-16.667 -52 -48.667 -92.667 -96 -122
c-44.667 -20.667 -92.667 -30 -144 -28z" />
    <glyph glyph-name="t" unicode="t" horiz-adv-x="246" 
d="M210 773h-66l-22 -147h-98l-10 -66h98l-66 -440c-4.66699 -34 2.33301 -62.333 21 -85c20 -23.333 46.333 -35 79 -35h36l10 66h-35c-35.333 0 -50.333 18 -45 54l66 440h100l10 66h-100z" />
    <glyph glyph-name="u" unicode="u" horiz-adv-x="620" 
d="M622 626h-67.001l-53 -357c-9.33301 -58 -38 -108.333 -86 -151c-47.333 -42 -100.333 -63 -159 -63c-57.333 0 -104.666 20.667 -141.999 62c-35.333 43.333 -48.333 94 -39 152l53 357h-67l-53 -357c-11.333 -77.333 6 -143.333 52 -198
c46.667 -48.667 109 -73 187 -73c76 0 145.333 24.333 208 73c63.333 55.333 101 121.333 113 198z" />
    <glyph glyph-name="v" unicode="v" horiz-adv-x="510" 
d="M544 626h-71l-268 -520l-111 520h-69l132 -626h64z" />
    <glyph glyph-name="w" unicode="w" horiz-adv-x="920" 
d="M474 546l83 -546h64l322 626h-71l-267 -520l-77 520h-83l-233 -520l-112 520h-68l132 -626h64z" />
    <glyph glyph-name="x" unicode="x" horiz-adv-x="569" 
d="M137 626h-87l179 -301l-281 -325h84l232 267l151 -267h87l-186 325l269 301h-87l-216 -243z" />
    <glyph glyph-name="y" unicode="y" horiz-adv-x="644" 
d="M628 626l-67.002 -0.00195312l-54 -357c-9.33301 -59.333 -38 -109.666 -86 -150.999c-47.333 -42 -100.333 -63 -159 -63c-57.333 0 -104.666 20.667 -141.999 62c-35.333 43.333 -48.666 94 -39.999 152l54 357h-66l-54 -357c-10.667 -76 6.66602 -142 51.999 -198
c46.667 -48.667 109 -73 187 -73c42.667 0 83.5 7.33301 122.5 22s73.833 37.334 104.5 68.001l-3 -22c-8.66699 -51.333 -37 -98 -85 -140c-47.333 -42 -100.333 -63 -159 -63c-60.667 0 -109.667 22.667 -147 68l-54 -47c46.667 -58.667 110.334 -88 191.001 -88
c76 0 145.667 27.667 209 83c64 56 101.333 118.333 112 187l30 203z" />
    <glyph glyph-name="z" unicode="z" horiz-adv-x="574" 
d="M478 0l10 66h-410l483 489l11 71h-27h-260h-206l-10 -66h410l-482 -489l-11 -71h26h466z" />
    <glyph glyph-name="braceleft" unicode="{" horiz-adv-x="300" 
d="M57 137l-14.9971 -102l2 -2h-3c-2.66699 -20.667 -2.33398 -41.334 0.999023 -62.001s9.5 -40.167 18.5 -58.5s20.5 -35.166 34.5 -50.499s30.333 -28 49 -38l12 80c-39.333 36 -55.333 79 -48 129h-2l3 2l15 103c10 67.333 -6 125.666 -48 174.999
c57.333 49.333 91 108 101 176l15 104c8.66699 56.667 38 103.334 88 140.001l12 79c-42.667 -20.667 -79.334 -50.167 -110.001 -88.5s-49.334 -81.5 -56.001 -129.5l-16 -105c-8 -55.333 -35.333 -100.333 -82 -135l-5 -3l-11 -75l3 -3c36 -36 50 -81.333 42 -136z" />
    <glyph glyph-name="bar" unicode="|" horiz-adv-x="238" 
d="M231 840h-67l-157 -1044h67z" />
    <glyph glyph-name="braceright" unicode="}" horiz-adv-x="299" 
d="M188 137c8 54.667 35.665 100 82.998 136l5 3l11 75l-3 3c-37.333 35.333 -51.666 80.333 -42.999 135l16 105c6.66699 48 1 91.167 -17 129.5s-46 67.833 -84 88.5l-12 -79c39.333 -37.333 54.333 -84 45 -140l-15 -104c-9.33301 -69.333 6.66699 -128 48 -176
c-56 -48.667 -89.667 -107 -101 -175l-15 -103l1 -2h-2c-7.33301 -51.333 -35.666 -94.333 -84.999 -129l-12 -80c42.667 20.667 79 49.167 109 85.5s48.333 77.5 55 123.5h-2l3 2z" />
    <glyph glyph-name="asciitilde" unicode="~" horiz-adv-x="478" 
d="M457 731c-14 -28.667 -32.668 -51.666 -56.001 -68.999c-32.667 -24.667 -68 -35.667 -106 -33c-37.333 2.66699 -66.333 18.667 -87 48c-10.667 16.667 -26.167 26 -46.5 28s-39.5 -3.66699 -57.5 -17c-12 -10 -21.333 -22.333 -28 -37l-55 18
c10.667 26.667 27 50 49 70c26.667 24.667 62 35.334 106 32.001c38 -3.33301 67.333 -19.333 88 -48c10.667 -16.667 25.834 -25.834 45.501 -27.501s38.5 4.16602 56.5 17.499c12 8 21.667 20 29 36z" />
    <glyph glyph-name="copyright" unicode="&#xa9;" horiz-adv-x="859" 
d="M372 66c105.333 0 201.667 37.667 289 113c87.333 77.333 139 168.666 155 273.999c16 107.333 -8.33301 198.333 -73 273c-64 76 -149 114 -255 114c-107.333 0 -204.333 -38 -291 -114c-86.667 -74.667 -138 -165.667 -154 -273c-16 -105.333 8 -196.666 72 -273.999
c66 -75.333 151.667 -113 257 -113zM569.001 575l56.002 48c-40 46.667 -93.333 70 -160 70s-126.334 -23.333 -179.001 -70c-54.667 -46.667 -87 -103.334 -97 -170.001c-10 -65.333 5 -121.666 45 -168.999c41.333 -47.333 94.333 -71 159 -71
c65.333 0 125.666 23.667 180.999 71l-41 48c-39.333 -34 -82.666 -51 -129.999 -51c-48.667 0 -86.334 17 -113.001 51c-28.667 32.667 -39.667 73 -33 121c7.33301 47.333 30.333 88 69 122c39.333 33.333 82.333 50 129 50c48 0 86 -16.667 114 -50zM382.003 133
c-89.333 0 -160.334 31.333 -213.001 94s-72.667 138 -60 226c13.333 88.667 56 164 128 226c70.667 62.667 151 94 241 94c88.667 0 159.334 -31.333 212.001 -94s72.667 -138 60 -226c-13.333 -88.667 -56 -164 -128 -226c-70.667 -62.667 -150.667 -94 -240 -94z" />
    <glyph glyph-name="registered" unicode="&#xae;" horiz-adv-x="859" 
d="M222 227h67.0029l30 200h116l86 -202h77l-87 204c33.333 5.33301 62.166 20 86.499 44s39.166 53 44.499 87c5.33301 38 -3.33398 69.333 -26.001 94c-22 26 -51.333 39 -88 39h-169h-67zM372.003 66c105.333 0 201.667 37.667 289 113
c87.333 77.333 139 168.666 155 273.999c16 107.333 -8.33301 198.333 -73 273c-64 76 -149 114 -255 114c-107.333 0 -204.333 -38 -291 -114c-86.667 -74.667 -138 -165.667 -154 -273c-16 -105.333 8 -196.666 72 -273.999c66 -75.333 151.667 -113 257 -113z
M382.004 133c-89.333 0 -160.334 31.333 -213.001 94s-72.667 138 -60 226c13.333 88.667 56 164 128 226c70.667 62.667 151 94 241 94c88.667 0 159.334 -31.333 212.001 -94s72.667 -138 60 -226c-13.333 -88.667 -56 -164 -128 -226
c-70.667 -62.667 -150.667 -94 -240 -94zM329.003 493l20 133h169c18.667 0 33.5 -6.5 44.5 -19.5s15.167 -28.5 12.5 -46.5c-2.66699 -18.667 -11.5 -34.5 -26.5 -47.5s-31.833 -19.5 -50.5 -19.5h-169z" />
    <glyph glyph-name="Agrave" unicode="&#xc0;" horiz-adv-x="729" 
d="M506 893h53l-91 201h-87zM436 840l-429 -840h68l144 280h356l60 -280h71l-180 840h-90zM253 347l217 423l91 -423h-308z" />
    <glyph glyph-name="Aacute" unicode="&#xc1;" horiz-adv-x="732" 
d="M434 840l-429 -840h68l144 280h356l60 -280h71l-180 840h-90zM459 893l185 201h-88l-151 -201h54zM251 347l217 423l91 -423h-308z" />
    <glyph glyph-name="Acircumflex" unicode="&#xc2;" 
d="M437 840l-429 -840h68l144 280h356l60 -280h71l-180 840h-90zM329 884h53l129 153l83 -153h54l-86 202h-87zM254 347l217 423l91 -423h-308z" />
    <glyph glyph-name="Atilde" unicode="&#xc3;" horiz-adv-x="728" 
d="M435 840l-429 -840h68l144 280h356l60 -280h71l-180 840h-90zM676 1038l-46.999 -0.00195312c-8 -15.333 -17.333 -26.333 -28 -33c-8.66699 -6.66699 -20 -10 -34 -10c-4 0 -9 0.666992 -15 2s-11.333 2.66602 -16 3.99902l-53 18
c-2.66699 0.666992 -5 1.33398 -7 2.00098l-6 2c-0.666992 0.666992 -6 1 -16 1c-29.333 0 -54.333 -9 -75 -27c-22.667 -18 -40.667 -44.667 -54 -80h46c8 14.667 17 25.334 27 32.001c11.333 7.33301 22.333 11 33 11h5c5.33301 0 8.33301 -0.333008 9 -1
c2.66699 -0.666992 5.16699 -1.16699 7.5 -1.5s5.16602 -0.833008 8.49902 -1.5l53 -18c4 -2 8.66699 -3.5 14 -4.5s10 -1.5 14 -1.5h9c24 0 47.667 8.66699 71 26c20.667 16.667 38.667 43.334 54 80.001zM252.001 346.998l218 423l90 -423h-308z" />
    <glyph glyph-name="Adieresis" unicode="&#xc4;" horiz-adv-x="726" 
d="M434 840l-429 -840h68l144 280h356l60 -280h71l-180 840h-90zM559 931h81l14 94h-81zM347 931h81l14 94h-81zM251 347l218 423l90 -423h-308z" />
    <glyph glyph-name="Aring" unicode="&#xc5;" 
d="M437 840l-429 -840h68l144 280h356l60 -280h71l-180 840h-90zM521 1100c-15.333 0 -29.833 -2.66699 -43.5 -8s-26 -12.833 -37 -22.5s-20.167 -21 -27.5 -34s-12 -26.833 -14 -41.5c-2.66699 -15.333 -2.33398 -29.5 0.999023 -42.5s9.16602 -24.333 17.499 -34
s18.5 -17.167 30.5 -22.5s25.667 -8 41 -8c14.667 0 28.834 2.66699 42.501 8s26 12.833 37 22.5s20.333 21 28 34s12.834 27.167 15.501 42.5c4 30 -2.66699 55.167 -20 75.5s-41 30.5 -71 30.5zM514 1056c17.333 0 31 -6.16699 41 -18.5s14 -26.833 12 -43.5
c-2.66699 -18 -11 -33 -25 -45s-29.667 -18 -47 -18s-31 6 -41 18s-13.667 27 -11 45c2 16.667 10 31.167 24 43.5s29.667 18.5 47 18.5zM254 347l217 423l91 -423h-308z" />
    <glyph glyph-name="AE" unicode="&#xc6;" horiz-adv-x="1179" 
d="M1162 840h-542l-608 -840h75l203 280h295l-42 -280h493l10 66h-426l54 361h293l12 79h-293l40 267h426zM595 347h-257l324 444z" />
    <glyph glyph-name="Ccedilla" unicode="&#xc7;" horiz-adv-x="647" 
d="M294 -34l5.00098 32.001h1c86.667 0 164.667 27.667 234 83l-41 47c-54.667 -48.667 -116 -73 -184 -73s-123 24 -165 72c-40.667 48.667 -55.667 107 -45 175l35 236c10 66.667 42.667 124.667 98 174c54.667 48.667 116.667 73 186 73c68 0 122.333 -24.333 163 -73
l55 47c-52 61.333 -121.333 92 -208 92c-85.333 0 -163.666 -30.667 -234.999 -92c-70 -60 -111.667 -133.667 -125 -221l-35 -236c-12 -77.333 2 -144.333 42 -201c39.333 -56 94.666 -89.667 165.999 -101l-11 -75c0.666992 0.666992 4.33398 1 11.001 1h38
c25.333 0 44.666 -4.66699 57.999 -14c10.667 -8.66699 14.667 -23.334 12 -44.001c-3.33301 -16.667 -11.333 -29.334 -24 -38.001c-13.333 -8 -31.333 -12 -54 -12c-28.667 0 -45.667 1.33301 -51 4c-15.333 2.66699 -41.333 7.66699 -78 15l-7 -43l37 -9.5
c12 -3 24 -5.16699 36 -6.5c10 -1.33301 20.333 -2.5 31 -3.5s21.667 -1.5 33 -1.5c42 0 74.333 8.33301 97 25c24 17.333 38.333 41.333 43 72c5.33301 32.667 -1.33398 56.334 -20.001 71.001c-16.667 16.667 -45.667 25 -87 25h-11z" />
    <glyph glyph-name="Egrave" unicode="&#xc8;" horiz-adv-x="640" 
d="M143 840l-126 -840h493l10 66h-427l54 361h294l12 79h-294l40 267h427l10 67h-493zM449 893h53l-91 201h-87z" />
    <glyph glyph-name="Eacute" unicode="&#xc9;" horiz-adv-x="641" 
d="M142 840l-126 -840h493l10 66h-427l54 361h294l12 79h-294l40 267h427l10 67h-493zM402 893l186 201h-88l-151 -201h53z" />
    <glyph glyph-name="Ecircumflex" unicode="&#xca;" horiz-adv-x="645" 
d="M146 840l-126 -840h493l9 66h-427l55 361h294l11 79h-294l41 267h427l10 67h-493zM239 884h54l129 153l83 -153h53l-85 202h-88z" />
    <glyph glyph-name="Edieresis" unicode="&#xcb;" horiz-adv-x="641" 
d="M145 840l-126 -840h493l10 66h-427l54 361h294l12 79h-294l40 267h427l10 67h-493zM611 1038h-46.998c-9.33301 -15.333 -18.833 -26.333 -28.5 -33s-21.167 -10 -34.5 -10c-6 0 -11.333 0.666992 -16 2s-9.66699 2.66602 -15 3.99902l-52 18
c-2.66699 0.666992 -5 1.33398 -7 2.00098l-6 2c-0.666992 0.666992 -6.33398 1 -17.001 1c-29.333 0 -54.333 -9 -75 -27c-22 -18 -39.667 -44.667 -53 -80h45c9.33301 15.333 18.666 26 27.999 32c11.333 7.33301 22 11 32 11h6c5.33301 0 9.5 -0.333008 12.5 -1
s6.83301 -1.66699 11.5 -3l53 -18c4 -2 9 -3.5 15 -4.5s10.667 -1.5 14 -1.5h8c24.667 0 48.667 8.66699 72 26c20.667 18 38.667 44.667 54 80z" />
    <glyph glyph-name="Igrave" unicode="&#xcc;" horiz-adv-x="274" 
d="M203 840h-67l-126 -840h67zM218 893h53l-91 201h-85z" />
    <glyph glyph-name="Iacute" unicode="&#xcd;" horiz-adv-x="370" 
d="M206 840h-67l-126 -840h67zM183 893l186 201h-88l-151 -201h53z" />
    <glyph glyph-name="Icircumflex" unicode="&#xce;" horiz-adv-x="350" 
d="M216 840h-67l-126 -840h67zM31 884h54l127 153l82 -153h54l-86 202h-87z" />
    <glyph glyph-name="Idieresis" unicode="&#xcf;" horiz-adv-x="326" 
d="M208 840h-67l-126 -840h67zM231 931h81l14 94h-81zM67 931h78l14 94h-78z" />
    <glyph glyph-name="Eth" unicode="&#xd0;" horiz-adv-x="749" 
d="M326 66h-181.001l48 321h227l10 66h-227l16 107l32 213h90h91c67.333 0 121.333 -24.333 162 -73c41.333 -48 57 -106 47 -174h1h-1l-32 -213c-10 -68 -43 -126.333 -99 -175c-55.333 -48 -116.666 -72 -183.999 -72zM126.999 387l-57.999 -387h247
c85.333 0 163.666 30.667 234.999 92c70 60 111.667 133.667 125 221l32 213c12.667 86.667 -7 160.667 -59 222s-121 92 -207 92h-247l-58 -387h-104l-10 -66h104z" />
    <glyph glyph-name="Ntilde" unicode="&#xd1;" horiz-adv-x="799" 
d="M147 840l-126 -840h66l117 780l334 -780h109l126 840h-66l-117 -780l-334 780h-109zM668 1038l-46.998 -0.00292969c-9.33301 -15.333 -18.833 -26.333 -28.5 -33s-20.834 -10 -33.501 -10c-3.33301 0 -6 0.166992 -8 0.5s-4.33301 0.833008 -7 1.5
c-3.33301 0.666992 -6.33301 1.33398 -9 2.00098l-8 2l-52 18c-2.66699 0.666992 -5 1.33398 -7 2.00098l-6 2c-0.666992 0.666992 -6 1 -16 1c-30 0 -55.333 -9 -76 -27c-22 -18 -39.667 -44.667 -53 -80h46c8 14.667 17 25.334 27 32.001c11.333 7.33301 22 11 32 11h6
c5.33301 0 8.33301 -0.333008 9 -1c3.33301 -0.666992 6.16602 -1.16699 8.49902 -1.5s4.83301 -0.833008 7.5 -1.5l53 -18c4 -2 8.66699 -3.5 14 -4.5s10 -1.5 14 -1.5h8c24.667 0 48.667 8.66699 72 26c20.667 18 38.667 44.667 54 80z" />
    <glyph glyph-name="Ograve" unicode="&#xd2;" horiz-adv-x="674" 
d="M651 538c0 86 -30.668 159.667 -92.001 221s-135 92 -221 92s-159.667 -30.667 -221 -92s-92 -135 -92 -221v-238c0 -85.333 30.667 -158.666 92 -219.999c60.667 -54.667 134.334 -82 221.001 -82c86 0 159.333 27.333 220 82c61.333 61.333 92.333 134.666 93 219.999
h1v238h-1zM354.999 893h53l-121 201h-87zM90.999 538c0 68 24 126 72 174c48.667 48.667 107 73 175 73s126 -24.333 174 -73c48.667 -48 73 -106 73 -174v-236c0 -68 -24.333 -126.333 -73 -175c-48 -48 -106 -72 -174 -72s-126.333 24 -175 72c-48 48.667 -72 107 -72 175
v236z" />
    <glyph glyph-name="Oacute" unicode="&#xd3;" horiz-adv-x="729" 
d="M691 538c12.667 86 -7.00293 159.668 -59.0029 221.001s-121 92 -207 92c-85.333 0 -163.666 -30.667 -234.999 -92c-70 -60 -111.667 -133.667 -125 -221l-36 -238c-13.333 -86 6.33398 -159.333 59.001 -220c52.667 -54.667 122.334 -82 209.001 -82
c86 0 163.333 27.333 232 82c71.333 61.333 113.333 134.666 126 219.999h1l36 238h-1zM424.997 893.001l185 201h-87l-151 -201h53zM130.997 538.001c10 66.667 42.668 124.667 98.001 174c54.667 48.667 116.667 73 186 73c68 0 122.333 -24.333 163 -73
c41.333 -48 57 -106 47 -174l-36 -236c-10 -68 -43 -126.333 -99 -175c-55.333 -48 -117 -72 -185 -72c-68.667 0 -123.334 24 -164.001 72c-40.667 48.667 -56 107 -46 175z" />
    <glyph glyph-name="Ocircumflex" unicode="&#xd4;" horiz-adv-x="731" 
d="M693 538c13.333 87.333 -6.33594 161.001 -59.0029 221.001c-52 61.333 -121 92 -207 92c-85.333 0 -163.666 -30.667 -234.999 -92c-70 -61.333 -111.667 -135 -125 -221l-35 -238c-13.333 -86 6.33398 -159.333 59.001 -220c52 -54.667 121.333 -82 208 -82
c84.667 0 162.334 27.333 233.001 82c71.333 61.333 113.333 134.666 126 219.999h1l35 238h-1zM272.998 884.001h53l129 153l83 -153h54l-85 202h-87zM132.998 538.001c10.667 68 43.667 126 99 174c54.667 48.667 116.334 73 185.001 73s123.334 -24.333 164.001 -73
c41.333 -49.333 56.666 -107.333 45.999 -174l-35 -236c-10 -68 -43 -126.333 -99 -175c-55.333 -48 -117 -72 -185 -72c-68.667 0 -123.334 24 -164.001 72c-40.667 48.667 -56 107 -46 175z" />
    <glyph glyph-name="Otilde" unicode="&#xd5;" horiz-adv-x="732" 
d="M695 538c12.667 86 -7.00293 159.668 -59.0029 221.001s-121 92 -207 92c-85.333 0 -163.666 -30.667 -234.999 -92c-70 -60 -111.667 -133.667 -125 -221l-36 -238c-13.333 -86 6.33398 -159.333 59.001 -220c52.667 -54.667 122.334 -82 209.001 -82
c86 0 163.333 27.333 232 82c71.333 61.333 113.333 134.666 126 219.999h1l36 238h-1zM623.997 1038h-46.998c-8.66699 -15.333 -17.834 -26.333 -27.501 -33s-21.167 -10 -34.5 -10c-6 0 -11.5 0.666992 -16.5 2l-15.5 4l-52 18
c-3.33301 0.666992 -5.5 1.33398 -6.5 2.00098s-2.16699 1.16699 -3.5 1.5s-3.33301 0.666016 -6 0.999023s-7.33398 0.5 -14.001 0.5c-29.333 0 -54.333 -9 -75 -27c-23.333 -19.333 -41.333 -46 -54 -80h46c16 28.667 36 43 60 43h6c5.33301 0 9.5 -0.333008 12.5 -1
s6.83301 -1.66699 11.5 -3l54 -18c3.33301 -1.33301 6.5 -2.33301 9.5 -3s6.16699 -1.33398 9.5 -2.00098c0.666992 -0.666992 3.66699 -1 9 -1h8c24 0 47.667 8.66699 71 26c20 16.667 38.333 43.334 55 80.001zM134.999 538.001c10 66.667 42.666 124.667 97.999 174
c54.667 48.667 116.667 73 186 73c68 0 122.333 -24.333 163 -73c41.333 -48 57 -106 47 -174l-35 -236c-10.667 -68 -44 -126.333 -100 -175c-55.333 -48 -116.666 -72 -183.999 -72c-68 0 -123 24 -165 72c-40.667 48.667 -55.667 107 -45 175z" />
    <glyph glyph-name="Odieresis" unicode="&#xd6;" horiz-adv-x="732" 
d="M695 538c12.667 86 -7.00293 159.668 -59.0029 221.001s-121 92 -207 92c-85.333 0 -163.666 -30.667 -234.999 -92c-70 -60 -111.667 -133.667 -125 -221l-36 -238c-13.333 -86 6.33398 -159.333 59.001 -220c52.667 -54.667 122.334 -82 209.001 -82
c86 0 163.333 27.333 232 82c71.333 61.333 113.333 134.666 126 219.999h1l36 238h-1zM506.997 931.001h81l14 94h-81zM294.997 931.001h81l14 94h-81zM134.997 538.001c10 66.667 42.666 124.667 97.999 174c54.667 48.667 116.667 73 186 73
c68 0 122.333 -24.333 163 -73c41.333 -48 57 -106 47 -174l-35 -236c-10.667 -68 -44 -126.333 -100 -175c-55.333 -48 -116.666 -72 -183.999 -72c-68 0 -123 24 -165 72c-40.667 48.667 -55.667 107 -45 175z" />
    <glyph glyph-name="Oslash" unicode="&#xd8;" horiz-adv-x="825" 
d="M347 -2c84.667 0 162.332 27.335 232.999 82.002c70 61.333 112 134.666 126 219.999h1l35 238h-1c11.333 71.333 -0.333984 134.666 -35.001 189.999l95 112h-81l-54 -63c-53.333 49.333 -117 74 -191 74c-85.333 0 -163.666 -30.667 -234.999 -92
c-70 -61.333 -111.667 -135 -125 -221l-35 -238c-11.333 -70 0.666992 -132.667 36 -188l-92 -112h79l53 63c50.667 -43.333 114.334 -65 191.001 -65zM655.998 670.002c20 -40.667 26.332 -84.667 18.999 -132l-35 -236c-10 -68 -43 -126.333 -99 -175
c-55.333 -48 -117 -72 -185 -72c-61.333 0 -112.666 20.667 -153.999 62zM164.997 169.002c-20 40.667 -26.334 85 -19.001 133l35 236c10.667 68.667 43.334 126.667 98.001 174c54.667 48.667 116.667 73 186 73c62 0 113.667 -20.667 155 -62z" />
    <glyph glyph-name="Ugrave" unicode="&#xd9;" horiz-adv-x="763" 
d="M743 840l-67.001 0.000976562l-81 -538c-10 -68 -43 -126.333 -99 -175c-55.333 -48 -117 -72 -185 -72c-68.667 0 -123.334 24 -164.001 72c-40.667 48.667 -56 107 -46 175l81 538h-66l-81 -540c-13.333 -86 6.33398 -159.333 59.001 -220
c52.667 -54.667 122.334 -82 209.001 -82c86 0 163.333 27.333 232 82c71.333 61.333 113.333 134.666 126 219.999h1zM453.999 893.001h53l-91 201h-87z" />
    <glyph glyph-name="Uacute" unicode="&#xda;" horiz-adv-x="762" 
d="M740 840l-67.001 0.000976562l-81 -538c-10 -68 -43 -126.333 -99 -175c-55.333 -48 -117 -72 -185 -72c-68.667 0 -123.334 24 -164.001 72c-40.667 48.667 -56 107 -46 175l81 538h-66l-81 -540c-13.333 -86 6.33398 -159.333 59.001 -220
c52.667 -54.667 122.334 -82 209.001 -82c86 0 163.333 27.333 232 82c71.333 61.333 113.333 134.666 126 219.999h1zM416.999 893.001l185 201h-88l-150 -201h53z" />
    <glyph glyph-name="Ucircumflex" unicode="&#xdb;" horiz-adv-x="766" 
d="M743 840l-67.001 0.000976562l-81 -538c-10 -68 -43 -126.333 -99 -175c-55.333 -48 -117 -72 -185 -72c-68.667 0 -123.334 24 -164.001 72c-40.667 48.667 -56 107 -46 175l81 538h-66l-81 -540c-13.333 -86 6.33398 -159.333 59.001 -220
c52 -54.667 121.333 -82 208 -82c84.667 0 162.334 27.333 233.001 82c71.333 61.333 113.333 134.666 126 219.999h1zM275.999 884.001h53l129 153l83 -153h54l-85 202h-87z" />
    <glyph glyph-name="Udieresis" unicode="&#xdc;" horiz-adv-x="766" 
d="M744 840l-67.0029 0.000976562l-80 -538c-10.667 -68 -44 -126.333 -100 -175c-55.333 -48 -116.666 -72 -183.999 -72c-68 0 -123 24 -165 72c-40.667 48.667 -55.667 107 -45 175l80 538h-66l-81 -540c-13.333 -86 6.33398 -159.333 59.001 -220
c52.667 -54.667 122.334 -82 209.001 -82c86 0 163.333 27.333 232 82c71.333 61.333 113.333 134.666 126 219.999h1zM509.997 931.001h81l14 94h-81zM297.997 931.001h81l14 94h-81z" />
    <glyph glyph-name="Yacute" unicode="&#xdd;" horiz-adv-x="651" 
d="M570 840l-306 -422l-180 422h-75l210 -497l-51 -343h66l51 343l362 497h-77zM351 893l185 201h-88l-150 -201h53z" />
    <glyph glyph-name="germandbls" unicode="&#xdf;" horiz-adv-x="600" 
d="M535 645c8 54 -4.66602 101.666 -37.999 142.999c-33.333 40 -77 61 -131 63h-10c-58 -1.33301 -109.667 -22.666 -155 -63.999c-44.667 -42.667 -71.334 -92.334 -80.001 -149.001l-96 -638h66l96 638h1c4 38.667 21.333 72.334 52 101.001
c32.667 30 68.334 45.333 107.001 46h2c38.667 0 69.667 -13.667 93 -41c24 -27.333 33 -60.333 27 -99c-6 -40 -25 -73.333 -57 -100c-31.333 -27.333 -66.333 -41 -105 -41h-6l-10 -66h27v-1c52.667 6 96.667 -9 132 -45c35.333 -37.333 49 -82 41 -134
c-8 -54.667 -35.333 -101.334 -82 -140.001c-47.333 -39.333 -96.333 -56 -147 -50v-2h-94l-10 -66h58h56c67.333 0 129 26 185 78s89.333 112 100 180c4 26 4 50.833 0 74.5s-11.333 45.334 -22 65.001s-24.334 37 -41.001 52s-35.667 27.167 -57 36.5
c56 41.333 88.667 94.333 98 159z" />
    <glyph glyph-name="agrave" unicode="&#xe0;" horiz-adv-x="646" 
d="M602 358c11.333 78.667 -6.33594 144.667 -53.0029 198c-46 54.667 -107.667 82 -185 82c-75.333 0 -145.666 -27.667 -210.999 -83c-62.667 -54.667 -99.667 -120.334 -111 -197.001l-14 -89c-11.333 -78.667 6.33398 -144.667 53.001 -198
c46.667 -48.667 108.667 -73 186 -73c42.667 0 84.167 8.33301 124.5 25s75.833 41.334 106.5 74.001c0.666992 -28 10.334 -51.167 29.001 -69.5s43 -27.5 73 -27.5h14l10 66h-13c-35.333 0 -50.333 18 -45 54zM389.998 700h53l-91 201h-87zM534.998 358l-14.0029 -89
c-8.66699 -58.667 -37 -109 -85 -151s-101.333 -63 -160 -63c-57.333 0 -104.666 20.667 -141.999 62c-35.333 43.333 -48.666 94 -39.999 152l14 89c8.66699 58 37 108 85 150c48.667 42 102.334 63 161.001 63c58 0 104.667 -21 140 -63
c36 -41.333 49.667 -91.333 41 -150z" />
    <glyph glyph-name="aacute" unicode="&#xe1;" horiz-adv-x="648" 
d="M599 358c11.333 78.667 -6.33594 144.667 -53.0029 198c-46 54.667 -107.667 82 -185 82c-75.333 0 -145.666 -27.667 -210.999 -83c-62.667 -54.667 -99.667 -120.334 -111 -197.001l-14 -89c-11.333 -78.667 6.33398 -144.667 53.001 -198
c46.667 -48.667 108.667 -73 186 -73c42.667 0 84.167 8.33301 124.5 25s75.833 41.334 106.5 74.001c0.666992 -28 10.334 -51.167 29.001 -69.5s43 -27.5 73 -27.5h14l10 66h-13c-35.333 0 -50.333 18 -45 54zM352.998 700l185 201h-88l-151 -201h54zM531.998 358
l-14.0029 -89c-8.66699 -58.667 -37 -109 -85 -151s-101.333 -63 -160 -63c-57.333 0 -104.666 20.667 -141.999 62c-35.333 43.333 -48.666 94 -39.999 152l14 89c8.66699 58 37 108 85 150c48.667 42 102.334 63 161.001 63c58 0 104.667 -21 140 -63
c36 -41.333 49.667 -91.333 41 -150z" />
    <glyph glyph-name="acircumflex" unicode="&#xe2;" horiz-adv-x="652" 
d="M602 358c11.333 78.667 -6.33398 144.666 -53.001 197.999c-46 54.667 -107.667 82 -185 82c-76.667 0 -146.667 -27.667 -210 -83s-100.666 -121 -111.999 -197l-13 -89c-12 -77.333 5.33301 -143.333 52 -198c46.667 -48.667 109 -73 187 -73
c42.667 0 84.167 8.33301 124.5 25s75.833 41.334 106.5 74.001c0.666992 -28 10.167 -51.167 28.5 -69.5s42.5 -27.5 72.5 -27.5h14l10 66h-13c-35.333 0 -50.333 18 -45 54zM224 690.999h53l130 153l82 -153h54l-86 203h-87zM535 357.999l-13.001 -89.001
c-9.33301 -59.333 -38 -109.666 -86 -150.999c-47.333 -42 -100.333 -63 -159 -63c-57.333 0 -104.666 20.667 -141.999 62c-36 42 -49.333 92.667 -40 152l13 89c8.66699 58.667 37.334 108.667 86.001 150c48 42 101.333 63 160 63s105.667 -21 141 -63
c35.333 -41.333 48.666 -91.333 39.999 -150z" />
    <glyph glyph-name="atilde" unicode="&#xe3;" horiz-adv-x="654" 
d="M604 358c11.333 78.667 -6.33496 144.667 -53.002 198c-46 54.667 -107.667 82 -185 82c-75.333 0 -145.666 -27.667 -210.999 -83c-62.667 -54.667 -99.667 -120.334 -111 -197.001l-14 -89c-11.333 -78.667 6.33398 -144.667 53.001 -198
c46.667 -48.667 108.667 -73 186 -73c42.667 0 84 8.33301 124 25s76 41.334 108 74.001c0 -28 9.33301 -51.167 28 -69.5s43 -27.5 73 -27.5h14l10 66h-13c-35.333 0 -50.333 18 -45 54zM574.999 845l-46.998 -0.00292969
c-4.66699 -7.33301 -9.33398 -13.666 -14.001 -18.999s-9.33398 -9.66602 -14.001 -12.999c-11.333 -7.33301 -23 -11 -35 -11c-1.33301 0 -3.33301 0.166992 -6 0.5s-5.66699 0.833008 -9 1.5c-1.33301 0.666992 -3.16602 1.33398 -5.49902 2.00098l-10.5 3l-52 17
c-4 1.33301 -8.5 2.66602 -13.5 3.99902s-10.5 2 -16.5 2c-29.333 0 -54.333 -9.33301 -75 -28c-11.333 -9.33301 -21.333 -20.666 -30 -33.999s-16.334 -28.333 -23.001 -45h46c9.33301 16 18 26.333 26 31c10 8 21 12 33 12c1.33301 0 3.33301 -0.166992 6 -0.5
s5.66699 -0.833008 9 -1.5c2 -0.666992 4.33301 -1.16699 7 -1.5s5 -0.833008 7 -1.5l54 -18c4 -2 9 -3.5 15 -4.5s10.667 -1.5 14 -1.5h8c26 0 50 9 72 27c20.667 16.667 38.667 43 54 79zM537.001 357.997l-14.001 -89c-8.66699 -58.667 -37 -109 -85 -151
s-101.333 -63 -160 -63c-56.667 0 -103.667 20.667 -141 62c-36 43.333 -49.667 94 -41 152l14 89c8.66699 58 37 108 85 150c48.667 42 102.334 63 161.001 63c58 0 104.667 -21 140 -63c36 -41.333 49.667 -91.333 41 -150z" />
    <glyph glyph-name="adieresis" unicode="&#xe4;" horiz-adv-x="653" 
d="M604 358c11.333 78.667 -6.33496 144.667 -53.002 198c-46 54.667 -107.667 82 -185 82c-75.333 0 -145.666 -27.667 -210.999 -83c-62.667 -54.667 -99.667 -120.334 -111 -197.001l-14 -89c-11.333 -78.667 6.33398 -144.667 53.001 -198
c46.667 -48.667 108.667 -73 186 -73c42.667 0 84 8.33301 124 25s76 41.334 108 74.001c0 -28 9.33301 -51.167 28 -69.5s43 -27.5 73 -27.5h14l10 66h-13c-35.333 0 -50.333 18 -45 54zM457.999 738h81l14 94h-81zM245.999 738h81l14 94h-81zM536.999 358l-14.001 -89
c-8.66699 -58.667 -37 -109 -85 -151s-101.333 -63 -160 -63c-56.667 0 -103.667 20.667 -141 62c-36 43.333 -49.667 94 -41 152l14 89c8.66699 58 37 108 85 150c48.667 42 102.334 63 161.001 63c58 0 104.667 -21 140 -63c36 -41.333 49.667 -91.333 41 -150z" />
    <glyph glyph-name="aring" unicode="&#xe5;" horiz-adv-x="652" 
d="M602 358c12 77.333 -5.33398 143.332 -52.001 197.999s-108.667 82 -186 82c-76.667 0 -146.667 -27.667 -210 -83s-100.666 -121 -111.999 -197l-13 -89c-12 -77.333 5.33301 -143.333 52 -198c46.667 -48.667 109 -73 187 -73c42.667 0 84.167 8.33301 124.5 25
s75.833 41.334 106.5 74.001c0.666992 -28 10.167 -51.167 28.5 -69.5s42.5 -27.5 72.5 -27.5h14l10 66h-13c-35.333 0 -50.333 18 -45 54zM415.999 906.999c-15.333 0 -29.8359 -2.83301 -43.5029 -8.5s-26 -13.167 -37 -22.5s-20.167 -20.5 -27.5 -33.5
s-12 -26.833 -14 -41.5c-5.33301 -30 0.833984 -55.333 18.501 -76s41.834 -31 72.501 -31c14 0 27.833 2.83301 41.5 8.5s26 13.167 37 22.5s20.333 20.5 28 33.5s12.834 27.167 15.501 42.5c4 28.667 -3 53.667 -21 75c-18 20.667 -41.333 31 -70 31zM409.996 862.999
c16.667 0 30.167 -6.16699 40.5 -18.5s14.5 -26.833 12.5 -43.5c-2.66699 -18 -11.167 -33 -25.5 -45s-29.833 -18 -46.5 -18c-18 0 -32 6 -42 18s-13.667 27 -11 45c2 16.667 10 31.167 24 43.5s30 18.5 48 18.5zM534.996 357.999l-13.001 -89.001
c-9.33301 -59.333 -38 -109.666 -86 -150.999c-47.333 -42 -100.333 -63 -159 -63c-57.333 0 -104.666 20.667 -141.999 62c-36 42 -49.333 92.667 -40 152l13 89c8.66699 58.667 37.334 108.667 86.001 150c48 42 101.333 63 160 63s105.667 -21 141 -63
c35.333 -41.333 48.666 -91.333 39.999 -150z" />
    <glyph glyph-name="ae" unicode="&#xe6;" horiz-adv-x="1154" 
d="M994 77l-39.998 46.999c-50 -46 -105.667 -69 -167 -69c-57.333 0 -104.666 20.667 -141.999 62c-35.333 43.333 -48.333 94 -39 152l1 11h493l12 78c12 78 -5.66699 144 -53 198c-46.667 54.667 -108.334 82 -185.001 82c-42.667 0 -83.834 -9 -123.501 -27
s-74.5 -42 -104.5 -72l13 87h-67l-15 -99c-20.667 30.667 -47.834 56.834 -81.501 78.501s-71.834 32.5 -114.501 32.5c-76.667 0 -146.667 -27.667 -210 -83s-100.666 -121 -111.999 -197l-13 -89c-12 -77.333 5.33301 -143.333 52 -198c46.667 -48.667 109 -73 187 -73
c42 0 83 9.16699 123 27.5s75 42.833 105 73.5l-15 -99h67l14 88c46 -60 112.333 -90 199 -90c79.333 0 151.333 26.333 216 79zM539.002 268.999c-9.33301 -59.333 -38.001 -109.667 -86.001 -151c-47.333 -42 -100.333 -63 -159 -63
c-57.333 0 -104.666 20.667 -141.999 62c-36 42 -49.333 92.667 -40 152l13 89c8.66699 58.667 37.334 108.667 86.001 150c48 42 101.333 63 160 63s105.667 -21 141 -63c35.333 -41.333 48.666 -91.333 39.999 -150zM1043 346.998h-426l2 11
c8.66699 58.667 37.334 108.667 86.001 150c48 42 101 63 159 63c58.667 0 105.667 -21 141 -63c35.333 -41.333 48.666 -91.333 39.999 -150z" />
    <glyph glyph-name="ccedilla" unicode="&#xe7;" horiz-adv-x="573" 
d="M486 77l-40.0049 47.001c-50 -46 -105.333 -69 -166 -69c-57.333 0 -104.666 20.667 -141.999 62c-36 42 -49.333 92.667 -40 152l13 89c8.66699 58.667 37.334 108.667 86.001 150c48 42 101.333 63 160 63c62 0 110.667 -22.667 146 -68l54 47
c-46.667 58.667 -110 88 -190 88c-76.667 0 -146.667 -27.667 -210 -83s-100.666 -121 -111.999 -197l-13 -89c-10.667 -68 1.33301 -127.333 36 -178c35.333 -50 83.333 -80.333 144 -91l-11 -75c0.666992 0.666992 4 1 10 1h39c25.333 0 44.666 -4.66699 57.999 -14
c10.667 -8.66699 14.667 -23.334 12 -44.001c-2 -16 -9.66699 -28.667 -23 -38c-13.333 -8 -31.666 -12 -54.999 -12c-28.667 0 -45.667 1.33301 -51 4c-15.333 2.66699 -41.333 7.66699 -78 15l-7 -43l37 -9.5c12 -3 24 -5.16699 36 -6.5c10 -1.33301 20.333 -2.5 31 -3.5
s21.667 -1.5 33 -1.5c42 0 74.333 8.33301 97 25c24.667 17.333 39.334 41.333 44.001 72c4.66699 30 -2.66602 53.667 -21.999 71c-16.667 16.667 -45.334 25 -86.001 25h-11l5 32h1c80.667 0 152.334 26.333 215.001 79z" />
    <glyph glyph-name="egrave" unicode="&#xe8;" horiz-adv-x="627" 
d="M482 77l-40.0049 47.001c-50 -46 -105.333 -69 -166 -69c-57.333 0 -104.666 20.667 -141.999 62c-35.333 43.333 -48.666 94 -39.999 152l2 11h494l12 78c10.667 78 -7.33301 144 -54 198c-46 54.667 -107.333 82 -184 82c-75.333 0 -145.666 -27.667 -210.999 -83
c-62.667 -54.667 -99.667 -120.334 -111 -197.001l-14 -89c-11.333 -78.667 6.33398 -144.667 53.001 -198c46.667 -48.667 108.667 -73 186 -73c80.667 0 152.334 26.333 215.001 79zM389.995 700.001h53l-91 201h-87zM532.995 347.001h-427.001l2 11
c8.66699 58 37 108 85 150c48.667 42 102.334 63 161.001 63c58 0 104.667 -21 140 -63c36 -41.333 49.667 -91.333 41 -150z" />
    <glyph glyph-name="eacute" unicode="&#xe9;" horiz-adv-x="628" 
d="M479 77l-40.0049 47.001c-50 -46 -105.333 -69 -166 -69c-57.333 0 -104.666 20.667 -141.999 62c-35.333 43.333 -48.666 94 -39.999 152l2 11h494l12 78c10.667 78 -7.33301 144 -54 198c-46 54.667 -107.333 82 -184 82c-75.333 0 -145.666 -27.667 -210.999 -83
c-62.667 -54.667 -99.667 -120.334 -111 -197.001l-14 -89c-11.333 -78.667 6.33398 -144.667 53.001 -198c46.667 -48.667 108.667 -73 186 -73c80.667 0 152.334 26.333 215.001 79zM352.995 700.001l185 201h-88l-151 -201h54zM529.995 347.001h-427.001l2 11
c8.66699 58 37 108 85 150c48.667 42 102.334 63 161.001 63c58 0 104.667 -21 140 -63c36 -41.333 49.667 -91.333 41 -150z" />
    <glyph glyph-name="ecircumflex" unicode="&#xea;" horiz-adv-x="633" 
d="M483 77l-40.002 47c-50 -46 -105.333 -69 -166 -69c-57.333 0 -104.666 20.667 -141.999 62c-36 42 -49.333 92.667 -40 152l1 11h494l12 78c12 78 -5.66699 144 -53 198c-46.667 54.667 -108.334 82 -185.001 82s-146.667 -27.667 -210 -83s-100.666 -121 -111.999 -197
l-13 -89c-12 -77.333 5.33301 -143.333 52 -198c46.667 -48.667 109 -73 187 -73c80.667 0 152.334 26.333 215.001 79zM223.998 691h53l130 153l82 -153h54l-86 203h-87zM532.998 347h-427l2 11c8.66699 58.667 37.334 108.667 86.001 150c48 42 101.333 63 160 63
s105.667 -21 141 -63c35.333 -41.333 48.666 -91.333 39.999 -150z" />
    <glyph glyph-name="edieresis" unicode="&#xeb;" horiz-adv-x="632" 
d="M484 77l-40.002 47.001c-51.333 -46 -107 -69 -167 -69c-56.667 0 -103.667 20.667 -141 62c-36 43.333 -49.667 94 -41 152l2 11h494l12 78c10.667 78 -7.33301 144 -54 198c-46 54.667 -107.333 82 -184 82c-75.333 0 -145.666 -27.667 -210.999 -83
c-62.667 -54.667 -99.667 -120.334 -111 -197.001l-14 -89c-11.333 -78.667 6.33398 -144.667 53.001 -198c46.667 -48.667 108.667 -73 186 -73c79.333 0 151.333 26.333 216 79zM456.998 738.001h81l14 94h-81zM244.998 738.001h81l14 94h-81zM533.998 347.001h-427.001
l2 11c8.66699 58 37 108 85 150c48.667 42 102.334 63 161.001 63c58 0 104.667 -21 140 -63c36 -41.333 49.667 -91.333 41 -150z" />
    <glyph glyph-name="igrave" unicode="&#xec;" horiz-adv-x="238" 
d="M177 626h-67l-94 -626h67zM181 700h53l-89 201h-86z" />
    <glyph glyph-name="iacute" unicode="&#xed;" horiz-adv-x="336" 
d="M175 626h-67l-94 -626h67zM149 700l186 201h-88l-149 -201h51z" />
    <glyph glyph-name="icircumflex" unicode="&#xee;" horiz-adv-x="339" 
d="M200 626h-67l-94 -626h67zM20 691h53l127 153l83 -153h53l-85 203h-88z" />
    <glyph glyph-name="idieresis" unicode="&#xef;" horiz-adv-x="302" 
d="M181 626h-67l-94 -626h67zM206 738h81l14 94h-81zM42 738h78l14 94h-78z" />
    <glyph glyph-name="ntilde" unicode="&#xf1;" horiz-adv-x="672" 
d="M578 0l53.001 358.001c12 77.333 -5.33301 143.333 -52 198s-108.667 82 -186 82c-76.667 0 -146.667 -27.667 -210 -83c-62.667 -54.667 -100 -120.334 -112 -197.001l-53 -358h67l53 358c9.33301 58.667 37.666 108.667 84.999 150c48 42 101.333 63 160 63
s105.667 -21 141 -63c36 -40.667 49.333 -90.667 40 -150l-53 -358h67zM602.001 845.001h-47.002c-7.33301 -13.333 -16.333 -24 -27 -32c-11.333 -7.33301 -22.666 -11 -33.999 -11c-1.33301 0 -3.5 0.166992 -6.5 0.5s-6.16699 0.833008 -9.5 1.5
c-1.33301 0.666992 -3.16602 1.33398 -5.49902 2.00098l-10.5 3l-52 17c-4 1.33301 -8.66699 2.66602 -14 3.99902s-11 2 -17 2c-29.333 0 -54.333 -9.33301 -75 -28c-22 -19.333 -39.667 -45.666 -53 -78.999h46c8.66699 14.667 17.667 25 27 31c10 8 21 12 33 12
c1.33301 0 3.33301 -0.166992 6 -0.5s5.66699 -0.833008 9 -1.5c2 -0.666992 4.16699 -1.16699 6.5 -1.5s5.16602 -0.833008 8.49902 -1.5l52 -18c4.66699 -2 9.83398 -3.5 15.501 -4.5s10.167 -1.5 13.5 -1.5h8c25.333 0 49.666 9 72.999 27
c20.667 17.333 38.334 43.666 53.001 78.999z" />
    <glyph glyph-name="ograve" unicode="&#xf2;" horiz-adv-x="633" 
d="M602 358c11.333 78.667 -6.33496 144.668 -53.002 198.001c-46 54.667 -107.667 82 -185 82c-75.333 0 -145.666 -27.667 -210.999 -83c-62.667 -54.667 -99.667 -120.334 -111 -197.001l-14 -89c-11.333 -78.667 6.33398 -144.667 53.001 -198
c46.667 -48.667 108.667 -73 186 -73c76.667 0 146.334 24.333 209.001 73c63.333 54.667 100.666 120.667 111.999 198zM389.999 700.001h53l-91 201h-87zM534.999 358.001l-14.0029 -89c-8.66699 -58.667 -37 -109 -85 -151s-101.333 -63 -160 -63
c-57.333 0 -104.666 20.667 -141.999 62c-35.333 43.333 -48.666 94 -39.999 152l14 89c8.66699 58 37 108 85 150c48.667 42 102.334 63 161.001 63c58 0 104.667 -21 140 -63c36 -41.333 49.667 -91.333 41 -150z" />
    <glyph glyph-name="oacute" unicode="&#xf3;" horiz-adv-x="634" 
d="M599 358c11.333 78.667 -6.33496 144.668 -53.002 198.001c-46 54.667 -107.667 82 -185 82c-75.333 0 -145.666 -27.667 -210.999 -83c-62.667 -54.667 -99.667 -120.334 -111 -197.001l-14 -89c-11.333 -78.667 6.33398 -144.667 53.001 -198
c46.667 -48.667 108.667 -73 186 -73c76.667 0 146.334 24.333 209.001 73c63.333 54.667 100.666 120.667 111.999 198zM352.999 700.001l185 201h-88l-151 -201h54zM531.999 358.001l-14.0029 -89c-8.66699 -58.667 -37 -109 -85 -151s-101.333 -63 -160 -63
c-57.333 0 -104.666 20.667 -141.999 62c-35.333 43.333 -48.666 94 -39.999 152l14 89c8.66699 58 37 108 85 150c48.667 42 102.334 63 161.001 63c58 0 104.667 -21 140 -63c36 -41.333 49.667 -91.333 41 -150z" />
    <glyph glyph-name="ocircumflex" unicode="&#xf4;" horiz-adv-x="638" 
d="M602 358c11.333 78.667 -6.33398 144.667 -53.001 198c-46 54.667 -107.667 82 -185 82c-76.667 0 -146.667 -27.667 -210 -83s-100.666 -121 -111.999 -197l-13 -89c-12 -77.333 5.33301 -143.333 52 -198c46.667 -48.667 109 -73 187 -73c76 0 145.333 24.333 208 73
c63.333 55.333 101 121.333 113 198zM224 691h53l130 153l82 -153h54l-86 203h-87zM535 358l-13.001 -89.001c-9.33301 -59.333 -38 -109.666 -86 -150.999c-47.333 -42 -100.333 -63 -159 -63c-57.333 0 -104.666 20.667 -141.999 62c-36 42 -49.333 92.667 -40 152l13 89
c8.66699 58.667 37.334 108.667 86.001 150c48 42 101.333 63 160 63s105.667 -21 141 -63c35.333 -41.333 48.666 -91.333 39.999 -150z" />
    <glyph glyph-name="otilde" unicode="&#xf5;" horiz-adv-x="640" 
d="M604 358c11.333 78.667 -6.33496 144.668 -53.002 198.001c-46 54.667 -107.667 82 -185 82c-75.333 0 -145.666 -27.667 -210.999 -83c-62.667 -54.667 -99.667 -120.334 -111 -197.001l-14 -89c-11.333 -78.667 6.33398 -144.667 53.001 -198
c46.667 -48.667 108.667 -73 186 -73c76.667 0 146.334 24.333 209.001 73c63.333 54.667 100.666 120.667 111.999 198zM574.999 845.001l-46.998 -0.00292969c-4.66699 -7.33301 -9.33398 -13.666 -14.001 -18.999s-9.33398 -9.66602 -14.001 -12.999
c-11.333 -7.33301 -23 -11 -35 -11c-1.33301 0 -3.33301 0.166992 -6 0.5s-5.66699 0.833008 -9 1.5c-1.33301 0.666992 -3.16602 1.33398 -5.49902 2.00098l-10.5 3l-52 17c-4 1.33301 -8.5 2.66602 -13.5 3.99902s-10.5 2 -16.5 2c-29.333 0 -54.333 -9.33301 -75 -28
c-11.333 -9.33301 -21.333 -20.666 -30 -33.999s-16.334 -28.333 -23.001 -45h46c9.33301 16 18 26.333 26 31c10 8 21 12 33 12c1.33301 0 3.33301 -0.166992 6 -0.5s5.66699 -0.833008 9 -1.5c2 -0.666992 4.33301 -1.16699 7 -1.5s5 -0.833008 7 -1.5l54 -18
c4 -2 9 -3.5 15 -4.5s10.667 -1.5 14 -1.5h8c26 0 50 9 72 27c20.667 16.667 38.667 43 54 79zM537.001 357.998l-14.001 -89c-8.66699 -58.667 -37 -109 -85 -151s-101.333 -63 -160 -63c-56.667 0 -103.667 20.667 -141 62c-36 43.333 -49.667 94 -41 152l14 89
c8.66699 58 37 108 85 150c48.667 42 102.334 63 161.001 63c58 0 104.667 -21 140 -63c36 -41.333 49.667 -91.333 41 -150z" />
    <glyph glyph-name="odieresis" unicode="&#xf6;" horiz-adv-x="638" 
d="M603 358c11.333 78.667 -6.33496 144.668 -53.002 198.001c-46 54.667 -107.667 82 -185 82c-75.333 0 -145.666 -27.667 -210.999 -83c-62.667 -54.667 -99.667 -120.334 -111 -197.001l-14 -89c-11.333 -78.667 6.33398 -144.667 53.001 -198
c46.667 -48.667 108.667 -73 186 -73c76.667 0 146.334 24.333 209.001 73c63.333 54.667 100.666 120.667 111.999 198zM456.999 738.001h81l14 94h-81zM244.999 738.001h81l14 94h-81zM535.999 358.001l-14.001 -89c-8.66699 -58.667 -37 -109 -85 -151
s-101.333 -63 -160 -63c-56.667 0 -103.667 20.667 -141 62c-36 43.333 -49.667 94 -41 152l14 89c8.66699 58 37 108 85 150c48.667 42 102.334 63 161.001 63c58 0 104.667 -21 140 -63c36 -41.333 49.667 -91.333 41 -150z" />
    <glyph glyph-name="oslash" unicode="&#xf8;" horiz-adv-x="671" 
d="M622 358c10.667 70.667 -4.66797 134 -46.001 190l66 78h-82l-29 -35c-43.333 31.333 -92.333 47 -147 47c-76.667 0 -146.667 -27.667 -210 -83s-100.666 -121 -111.999 -197l-13 -89c-11.333 -74 4 -137.333 46 -190l-67 -79h81l31 35c42.667 -24.667 92 -37 148 -37
c76 0 145.333 24.333 208 73c63.333 55.333 101 121.333 113 198zM527.998 492c25.333 -39.333 34.333 -84.001 27 -134.001l-13 -89c-9.33301 -59.333 -38 -109.666 -86 -150.999c-47.333 -42 -100.333 -63 -159 -63c-40.667 0 -77.667 11.667 -111 35zM142.998 134.999
c-26.667 38.667 -36.001 83.333 -28.001 134l13 89c8.66699 58.667 37.334 108.667 86.001 150c48 42 101.333 63 160 63c43.333 0 80.333 -11.333 111 -34z" />
    <glyph glyph-name="ugrave" unicode="&#xf9;" horiz-adv-x="664" 
d="M646 626l-67.002 -0.000976562l-54 -357c-9.33301 -59.333 -38 -109.666 -86 -150.999c-48 -42 -101.333 -63 -160 -63c-56.667 0 -103.667 20.667 -141 62c-35.333 43.333 -48.666 94 -39.999 152l54 357h-66l-54 -357c-11.333 -78.667 6.33398 -144.667 53.001 -198
c46.667 -48.667 108.334 -73 185.001 -73c77.333 0 147.333 24.333 210 73c63.333 54.667 100.666 120.667 111.999 198zM393.998 699.999h52l-90 201h-88z" />
    <glyph glyph-name="uacute" unicode="&#xfa;" horiz-adv-x="664" 
d="M642 626l-67.0029 -0.000976562l-54 -357c-9.33301 -59.333 -38 -109.666 -86 -150.999c-48 -42 -101 -63 -159 -63c-57.333 0 -104.666 20.667 -141.999 62c-35.333 43.333 -48.666 94 -39.999 152l54 357h-66l-54 -357c-11.333 -78.667 6.33398 -144.667 53.001 -198
c46.667 -48.667 108.667 -73 186 -73c76.667 0 146.334 24.333 209.001 73c63.333 54.667 100.666 120.667 111.999 198zM354.997 699.999l186 201h-88l-151 -201h53z" />
    <glyph glyph-name="ucircumflex" unicode="&#xfb;" horiz-adv-x="670" 
d="M646 626l-67.001 -0.000976562l-53 -357c-9.33301 -59.333 -38 -109.666 -86 -150.999c-47.333 -42 -100.333 -63 -159 -63c-57.333 0 -104.666 20.667 -141.999 62c-35.333 43.333 -48.333 94 -39 152l53 357h-67l-53 -357c-12 -77.333 5.33301 -143.333 52 -198
c46.667 -48.667 109 -73 187 -73c76 0 145.333 24.333 208 73c63.333 55.333 101 121.333 113 198zM227.999 690.999h53l130 153l83 -153h53l-86 203h-87z" />
    <glyph glyph-name="udieresis" unicode="&#xfc;" horiz-adv-x="669" 
d="M647 626l-67.002 -0.000976562l-54 -357c-8.66699 -58.667 -37 -109 -85 -151s-101.333 -63 -160 -63c-56.667 0 -103.667 20.667 -141 62c-35.333 44.667 -48.666 95.334 -39.999 152.001l54 357h-67l-54 -357c-11.333 -78.667 6.33398 -144.667 53.001 -198
c46.667 -48.667 108.667 -73 186 -73c76.667 0 146.334 24.333 209.001 73c63.333 54.667 100.666 120.667 111.999 198zM460.998 737.999h81l14 94h-81zM248.998 737.999h81l14 94h-81z" />
    <glyph glyph-name="yacute" unicode="&#xfd;" horiz-adv-x="663" 
d="M642 626l-67.001 -0.00195312l-54 -357c-9.33301 -59.333 -38 -109.666 -86 -150.999c-48 -42 -101.333 -63 -160 -63c-56.667 0 -103.667 20.667 -141 62c-35.333 43.333 -48.666 94 -39.999 152l54 357h-66l-54 -357c-11.333 -77.333 6 -143.333 52 -198
c46.667 -48.667 108.667 -73 186 -73c42.667 0 83.667 7.33301 123 22s74.333 37.334 105 68.001l-3 -22c-8.66699 -51.333 -37 -98 -85 -140s-101.333 -63 -160 -63c-60 0 -108.667 22.667 -146 68l-54 -47c46.667 -58.667 110 -88 190 -88c76.667 0 146.667 27.667 210 83
c64 56 101.333 118.333 112 187l30 203zM354.999 699.998l186 201h-88l-151 -201h53z" />
    <glyph glyph-name="ydieresis" unicode="&#xff;" horiz-adv-x="666" 
d="M645 626l-67.002 -0.00195312l-54 -357c-9.33301 -59.333 -38 -109.666 -86 -150.999c-48 -42 -101.333 -63 -160 -63c-56 0 -102.667 20.667 -140 62c-36 43.333 -49.667 94 -41 152l54 357h-66l-54 -357c-11.333 -78.667 6.33398 -144.667 53.001 -198
c46.667 -48.667 108.334 -73 185.001 -73c42.667 0 83.667 7.33301 123 22s74.333 37.334 105 68.001l-3 -22c-8 -52 -36 -98.667 -84 -140c-49.333 -42 -103 -63 -161 -63c-60 0 -108.667 22.667 -146 68l-54 -47c46.667 -58.667 110 -88 190 -88
c76.667 0 146.667 27.667 210 83c64 56 101.333 118.333 112 187l30 203zM458.998 737.998h81l14 94h-81zM245.998 737.998h81l14 94h-81z" />
    <glyph glyph-name="OE" unicode="&#x152;" horiz-adv-x="1196" 
d="M703 506c7.33301 44.667 14.165 89.3311 20.498 133.998l19.5 133h427l10 67h-493l-17 -109c-23.333 36.667 -54.833 65.834 -94.5 87.501s-84.5 32.5 -134.5 32.5c-85.333 0 -163.666 -30.667 -234.999 -92c-70 -61.333 -111.667 -135 -125 -221l-35 -238
c-13.333 -86.667 6.33398 -160 59.001 -220c52 -54.667 121.333 -82 208 -82c50 0 98 9.33301 144 28s86 46.334 120 83.001l-16 -109h493l9 66h-427l37 246h1l18 115h293l11 79h-293zM605.999 301.997c-10 -68 -43 -126.333 -99 -175c-55.333 -48 -117 -72 -185 -72
c-68.667 0 -123.334 24 -164.001 72c-40.667 48.667 -56 107 -46 175l35 236c10.667 68.667 43.334 126.667 98.001 174c54.667 48.667 116.667 73 186 73c68 0 122.333 -24.333 163 -73c42 -48 57.667 -106 47 -174z" />
    <glyph glyph-name="oe" unicode="&#x153;" horiz-adv-x="1154" 
d="M994 77l-40.0039 47c-50 -46 -105.667 -69 -167 -69c-57.333 0 -104.666 20.667 -141.999 62c-35.333 43.333 -48.333 94 -39 152l1 11h493l12 78c12 78 -5.66699 144 -53 198c-46.667 54.667 -108.334 82 -185.001 82c-26 0 -51.833 -3.66699 -77.5 -11
s-50.167 -17.5 -73.5 -30.5s-45 -28.5 -65 -46.5s-37.667 -38 -53 -60c-8.66699 22 -20.167 42 -34.5 60s-31.166 33.5 -50.499 46.5s-40.666 23.167 -63.999 30.5s-48.333 11 -75 11c-76.667 0 -146.667 -27.667 -210 -83s-100.666 -121 -111.999 -197l-13 -89
c-12 -77.333 5.33301 -143.333 52 -198c46.667 -48.667 109 -73 187 -73c54 0 104.333 12.167 151 36.5s85.334 58.5 116.001 102.5c17.333 -44.667 45.833 -79 85.5 -103s86.5 -36 140.5 -36c79.333 0 151.333 26.333 216 79zM538.996 269
c-9.33301 -59.333 -38.001 -109.667 -86.001 -151c-47.333 -42 -100.333 -63 -159 -63c-57.333 0 -104.666 20.667 -141.999 62c-36 42 -49.333 92.667 -40 152l13 89c8.66699 58.667 37.334 108.667 86.001 150c48 42 101.333 63 160 63s105.667 -21 141 -63
c35.333 -41.333 48.666 -91.333 39.999 -150zM1043 346.999h-426l2 11c8.66699 58.667 37.334 108.667 86.001 150c48 42 101 63 159 63c58.667 0 105.667 -21 141 -63c35.333 -41.333 48.666 -91.333 39.999 -150z" />
    <glyph glyph-name="Scaron" unicode="&#x160;" horiz-adv-x="550" 
d="M329 851c-56.667 0 -108.335 -20.334 -155.002 -61.001c-46.667 -41.333 -74.334 -89.666 -83.001 -144.999c-10 -68.667 1.33301 -117 34 -145c16 -14.667 33.833 -27.5 53.5 -38.5s39.834 -21.5 60.501 -31.5l60.5 -30.5c19.667 -10.333 37.5 -21.833 53.5 -34.5
c34.667 -24.667 47.334 -68 38.001 -130c-8 -50 -32.333 -92.333 -73 -127c-41.333 -35.333 -86 -53 -134 -53c-49.333 0 -89 17.667 -119 53l-56 -47c42.667 -42 98 -63 166 -63c66 0 126.667 21 182 63c56 48.667 89.333 106.667 100 174c10.667 76 -0.333008 130 -33 162
c-31.333 32 -68.666 57.667 -111.999 77l-58.5 29c-19.667 10 -38.5 20.333 -56.5 31c-34 20.667 -47 57.667 -39 111c6 38 24.667 70.667 56 98c30.667 28 65.667 42 105 42c43.333 0 76.333 -16.333 99 -49l54 48c-34 44.667 -81.667 67 -143 67zM212.999 1091l85 -202h88
l145 202h-53l-129 -152l-83 152h-53z" />
    <glyph glyph-name="scaron" unicode="&#x161;" horiz-adv-x="495" 
d="M119 0c51.333 -5.33301 99.3379 4.00293 144.005 28.0029c46.667 29.333 78.334 70 95.001 122c19.333 61.333 18.666 106.333 -2.00098 135s-46.667 52.334 -78 71.001c-14.667 8.66699 -28.834 17.5 -42.501 26.5s-26.834 18.167 -39.501 27.5
c-23.333 19.333 -28.666 49 -15.999 89c8 24.667 23 44 45 58s45.333 19 70 15c24.667 -4.66699 43 -17.667 55 -39l58 38c-20.667 35.333 -51.667 57.666 -93 66.999c-42.667 6.66699 -83.334 -2.33301 -122.001 -27c-38 -24.667 -63.667 -58.334 -77 -101.001
c-16.667 -54.667 -14.334 -95.334 6.99902 -122.001c10.667 -12.667 22.667 -24.167 36 -34.5s27.333 -20.166 42 -29.499c15.333 -8.66699 29.666 -17.834 42.999 -27.501s26 -19.834 38 -30.501c22.667 -20.667 26.667 -55.334 12 -104.001
c-10 -33.333 -30.667 -59.666 -62 -78.999s-62.333 -26 -93 -20c-32.667 5.33301 -56.334 21 -71.001 47l-57 -39c22.667 -42 58.667 -65.667 108 -71zM181.005 882.003l80 -189h83l136 189h-49l-122 -142l-78 142h-50z" />
    <glyph glyph-name="trademark" unicode="&#x2122;" horiz-adv-x="715" 
d="M425 840h-68l-46 -306h42l41 270l66 -270h29l143 270l-41 -270h41l46 306h-67l-127 -244zM284 840h-246l-5 -33h99l-41 -273h48l41 273h99z" />
    <glyph glyph-name="uniE000" unicode="&#xe000;" horiz-adv-x="0" 
 />
    <glyph glyph-name="uniE001" unicode="&#xe001;" horiz-adv-x="1000" 
 />
    <glyph glyph-name=".null" unicode="&#xe002;" horiz-adv-x="293" 
 />
    <glyph glyph-name="tt421" unicode="&#xe003;" horiz-adv-x="500" 
 />
    </font>
</defs>
</svg>
